<svg width="180" height="207" viewBox="0 0 180 207" fill="none" xmlns="http://www.w3.org/2000/svg">
<path d="M18.0591 118.109C18.0215 117.546 18.2231 116.994 18.6143 116.587L118.224 13.1897C119.367 12.0039 121.372 12.6292 121.638 14.2541L148.498 178.28C148.701 179.516 147.731 180.631 146.48 180.603L23.8815 177.848C22.8463 177.824 22 177.015 21.9309 175.982L18.0591 118.109Z" fill="#8964FE"/>
<path d="M59.8411 26.3458L173.682 127.687L34.3312 192.506L20.3842 93.1165L59.8411 26.3458Z" fill="#151517"/>
<path d="M69.4215 88.582L62.6316 88.9179L64.0203 77.4498L64.372 74.5518L67.1507 74.3371L67.3199 75.4007L69.4215 88.582Z" fill="#F6F4E7"/>
<path d="M67.32 75.4007L64.0204 77.4498L64.372 74.5518L67.1507 74.3371L67.32 75.4007Z" fill="black"/>
<path d="M149.372 112.56C147.577 112.712 146.511 110.599 147.701 109.246L160.016 95.2395C160.909 94.2232 162.533 94.3692 163.231 95.5285L170.654 107.858C171.418 109.127 170.586 110.757 169.11 110.883L149.372 112.56Z" fill="#8964FE"/>
<path d="M85.3883 119.053C84.9902 119.468 84.7896 120.033 84.8375 120.606L90.0716 183.128C90.17 184.304 89.2351 185.308 88.0557 185.295L44.4016 184.796C43.296 184.784 42.4104 183.877 42.4246 182.771L43.5704 93.4566C43.5824 92.5186 44.2448 91.715 45.1633 91.5241L55.8105 89.3117C56.8342 89.099 57.5213 88.1337 57.3871 87.0968L57.2861 86.3169C57.1249 85.0715 58.1379 83.9874 59.3914 84.0638L62.3117 84.242C62.9995 84.284 63.6172 84.6771 63.9466 85.2823L64.3764 86.0722C64.7978 86.8465 65.6765 87.2536 66.5397 87.0744L68.7719 86.6109C69.406 86.4799 69.9458 86.0351 70.1173 85.4108L70.2216 85.0313C70.411 84.3415 70.9545 83.8055 71.6467 83.6254L73.8516 83.052C75.1553 82.7129 76.4147 83.7337 76.3529 85.0794L76.2833 86.5942C76.2488 87.346 76.6476 88.0423 77.2601 88.4796C78.0108 89.0156 78.7092 89.6438 79.3436 90.353C80.1802 91.2882 81.644 91.4992 82.5668 90.6488L95.8289 78.4272C96.1777 78.1058 96.4009 77.6709 96.4586 77.2002L100.788 41.9348C100.913 40.9182 101.785 40.1602 102.809 40.1789L108.553 40.2834C109.638 40.3032 110.509 41.1844 110.517 42.2694L110.855 91.7278C110.859 92.2491 110.659 92.7512 110.298 93.1271L85.3883 119.053Z" fill="#8682A4"/>
<path d="M108.075 41.3301C108.865 41.2774 109.517 40.6917 109.654 39.9118L111.275 30.6537C111.387 30.0122 110.491 29.7382 110.226 30.3329C109.974 30.8955 109.13 30.687 109.169 30.072L109.197 29.6415C109.244 28.9122 108.22 28.701 107.974 29.3892L107.718 30.1072C107.521 30.6572 106.709 30.5065 106.689 29.9228C106.668 29.3081 105.785 29.1924 105.656 29.7938L105.553 30.2729C105.447 30.7663 104.73 30.7277 104.678 30.2257C104.622 29.6909 103.841 29.6979 103.795 30.2336L103.531 33.2754C103.493 33.7073 102.97 33.9001 102.661 33.5955C102.239 33.1793 101.565 33.6925 101.855 34.2097L104.182 38.3742C104.268 38.5285 104.319 38.7 104.331 38.8763L104.377 39.571C104.449 40.6737 105.403 41.5083 106.505 41.4347L108.075 41.3301Z" fill="#F6F4E7"/>
<path d="M138.185 24.8125H112.265C111.16 24.8125 110.265 25.7079 110.265 26.8125V32.5702C110.265 33.6748 111.16 34.5702 112.265 34.5702H138.185C139.29 34.5702 140.185 33.6748 140.185 32.5702V26.8125C140.185 25.7079 139.29 24.8125 138.185 24.8125Z" fill="#5454C5"/>
<path d="M150.106 32.7581C151.21 32.7581 152.106 33.6535 152.106 34.7581V124.711C152.106 125.816 151.21 126.711 150.106 126.711H97.4834C96.3788 126.711 95.4834 125.816 95.4834 124.711V34.7581C95.4834 33.6535 96.3788 32.7581 97.4834 32.7581H106.834C107.939 32.7581 108.834 31.8626 108.834 30.7581V26.8125C108.834 25.7079 109.73 24.8125 110.834 24.8125H136.755C137.859 24.8125 138.755 25.7079 138.755 26.8125V30.7581C138.755 31.8626 139.65 32.7581 140.755 32.7581H150.106Z" fill="black"/>
<path d="M66.4308 75.0341C69.5474 75.0341 72.074 72.0796 72.074 68.4351C72.074 64.7906 69.5474 61.8361 66.4308 61.8361C63.3141 61.8361 60.7876 64.7906 60.7876 68.4351C60.7876 72.0796 63.3141 75.0341 66.4308 75.0341Z" fill="#F6F4E7"/>
<path d="M28.2517 91.4438C28.9759 91.4438 29.5629 90.7573 29.5629 89.9104C29.5629 89.0636 28.9759 88.3771 28.2517 88.3771C27.5275 88.3771 26.9404 89.0636 26.9404 89.9104C26.9404 90.7573 27.5275 91.4438 28.2517 91.4438Z" fill="black"/>
<path d="M82.2517 35.4066C82.9759 35.4066 83.5629 34.7201 83.5629 33.8732C83.5629 33.0264 82.9759 32.3399 82.2517 32.3399C81.5275 32.3399 80.9404 33.0264 80.9404 33.8732C80.9404 34.7201 81.5275 35.4066 82.2517 35.4066Z" fill="black"/>
<path d="M99.2981 184.56C100.022 184.56 100.609 183.874 100.609 183.027C100.609 182.18 100.022 181.494 99.2981 181.494C98.5739 181.494 97.9868 182.18 97.9868 183.027C97.9868 183.874 98.5739 184.56 99.2981 184.56Z" fill="black"/>
<path d="M43.1523 38.6127C43.8765 38.6127 44.4636 37.9262 44.4636 37.0793C44.4636 36.2325 43.8765 35.546 43.1523 35.546C42.4281 35.546 41.8411 36.2325 41.8411 37.0793C41.8411 37.9262 42.4281 38.6127 43.1523 38.6127Z" fill="black"/>
<path d="M153.298 149.99C154.022 149.99 154.609 149.304 154.609 148.457C154.609 147.61 154.022 146.923 153.298 146.923C152.574 146.923 151.987 147.61 151.987 148.457C151.987 149.304 152.574 149.99 153.298 149.99Z" fill="black"/>
<path d="M50.3046 22.4428C50.3046 22.4428 15.3775 36.8006 25.5099 56.5948C35.6424 76.389 20.7417 81.2679 20.7417 81.2679" stroke="#2D2D43" stroke-width="4" stroke-miterlimit="10"/>
<path d="M69.8099 16.1215C68.6554 15.6394 67.3467 16.3236 67.0838 17.5468L63.433 34.5345C63.0033 36.5341 65.4971 37.8132 66.8704 36.2976L79.0397 22.8676C79.967 21.8442 79.6027 20.2113 78.3284 19.6791L69.8099 16.1215Z" fill="#8682A4"/>
<path d="M32.3047 115.833H8.86536V158.214H32.3047V115.833Z" fill="black"/>
<path d="M28.9493 114.305H10.5828C9.47819 114.305 8.58276 115.2 8.58276 116.305V154.687C8.58276 155.791 9.47819 156.687 10.5828 156.687H28.9493C30.0538 156.687 30.9493 155.791 30.9493 154.687V116.305C30.9493 115.2 30.0538 114.305 28.9493 114.305Z" fill="#8682A4"/>
<path d="M104.774 171.725C103.512 171.378 102.917 169.931 103.572 168.797L110.868 156.154C111.525 155.014 113.086 154.809 114.016 155.741L119.951 161.69C120.726 162.467 121.983 162.474 122.767 161.706L132.032 152.626C132.963 151.713 134.505 151.921 135.16 153.048L140.967 163.027C141.42 163.807 141.296 164.794 140.663 165.436L128.969 177.312C128.461 177.828 127.713 178.029 127.014 177.837L104.774 171.725Z" stroke="white" stroke-width="4" stroke-miterlimit="10"/>
<path d="M38.0707 71.562C38.2909 70.6681 38.9426 70.4506 39.3835 71.2588C40.5796 73.4512 42.387 78.0238 43.1221 79.9237C43.3333 80.4697 43.2949 81.0623 43.0122 81.575C40.5791 85.9869 28.8622 107.203 29.5034 105.453C30.1268 103.752 36.4564 78.1141 38.0707 71.562Z" stroke="white" stroke-width="4" stroke-miterlimit="10"/>
<path d="M25.0625 165.966C25.0809 165.191 25.5454 164.497 26.2545 164.184L35.6563 160.035C36.7567 159.549 38.0337 160.138 38.3793 161.29L39.63 165.458C39.909 166.388 39.4799 167.384 38.6123 167.82L27.8307 173.237C26.4821 173.915 24.8975 172.912 24.9334 171.403L25.0625 165.966Z" stroke="white" stroke-width="4" stroke-miterlimit="10"/>
<path d="M122.954 127.473C123.501 127.132 123.092 126.293 122.487 126.513C121.894 126.728 121.48 125.922 122.001 125.566L122.242 125.4C122.803 125.017 122.35 124.149 121.715 124.391L118.94 125.447C118.263 125.705 117.714 124.855 118.228 124.344C118.755 123.82 118.168 122.956 117.487 123.252L110.953 126.091C110.178 126.428 109.287 125.987 109.085 125.167C108.751 123.818 106.848 123.773 106.452 125.106L105.658 127.777C105.571 128.071 105.325 128.291 105.023 128.345C104.541 128.43 104.245 128.919 104.389 129.387C105.078 131.623 105.732 133.876 106.358 136.139C106.682 137.308 107.957 137.933 109.075 137.462L112.079 136.198L122.541 130.262C123.109 129.94 122.736 129.073 122.112 129.264C121.5 129.45 121.12 128.614 121.663 128.276L122.954 127.473Z" fill="#F6F4E7"/>
<path d="M49.2735 86.275C46.0955 86.9469 42.3846 90.5712 40.9506 92.4851C39.8086 94.0087 38.8287 95.7386 38.3281 97.6762C36.9608 102.941 40.432 109.958 41.8828 114.841C43.1559 118.905 43.194 119.274 43.709 120.992L45.7641 127.91C47.0145 132.118 48.2316 136.338 49.4678 140.553C49.8111 141.725 55.2099 160.59 55.3303 160.548L109.855 141.845C111.019 141.445 111.549 140.101 110.972 139.014L105.279 128.3C104.915 127.613 104.185 127.2 103.408 127.241L66.8134 129.166C65.4067 129.241 62.7961 115.577 62.361 114.004C60.5332 107.406 58.5043 100.889 56.2744 94.4547C55.0919 91.0353 53.2776 85.4288 49.2735 86.275Z" fill="#8682A4"/>
<path d="M43.1881 119.034L55.2683 160.62L87.4895 149.573L42.5563 174.384L43.1881 119.034Z" fill="black"/>
<path d="M61.1523 108.297L61.1833 108.436L65.9933 129.871L75.2674 128.526C75.2674 128.526 67.4357 125.735 61.1523 108.297Z" fill="black"/>
<path d="M149.007 37.9004H98.5828V121.567H149.007V37.9004Z" fill="#F6F4E7"/>
<path d="M153.179 126.175V33.2945C153.179 32.9982 152.939 32.7581 152.642 32.7581C152.346 32.7581 152.106 32.9982 152.106 33.2945V126.175C152.106 126.471 152.346 126.711 152.642 126.711C152.939 126.711 153.179 126.471 153.179 126.175Z" fill="#5454C5"/>
<path d="M108.98 47.8128H104.397C103.293 47.8128 102.397 48.7083 102.397 49.8128V55.8493C102.397 56.9539 103.293 57.8493 104.397 57.8493H108.98C110.085 57.8493 110.98 56.9539 110.98 55.8493V49.8128C110.98 48.7083 110.085 47.8128 108.98 47.8128Z" fill="black"/>
<path d="M144.358 49.0674H112.53V50.4614H144.358V49.0674Z" fill="black"/>
<path d="M137.563 52.2735H112.53V53.6675H137.563V52.2735Z" fill="black"/>
<path d="M142.093 55.3402H112.53V56.7342H142.093V55.3402Z" fill="black"/>
<path d="M108.98 63.5646H104.397C103.293 63.5646 102.397 64.46 102.397 65.5646V71.6011C102.397 72.7057 103.293 73.6011 104.397 73.6011H108.98C110.085 73.6011 110.98 72.7057 110.98 71.6011V65.5646C110.98 64.46 110.085 63.5646 108.98 63.5646Z" fill="black"/>
<path d="M144.358 64.8192H112.53V66.2131H144.358V64.8192Z" fill="black"/>
<path d="M137.563 68.0253H112.53V69.4192H137.563V68.0253Z" fill="black"/>
<path d="M142.093 71.092H112.53V72.4859H142.093V71.092Z" fill="black"/>
<path d="M108.98 78.6194H104.397C103.293 78.6194 102.397 79.5148 102.397 80.6194V86.6559C102.397 87.7604 103.293 88.6559 104.397 88.6559H108.98C110.085 88.6559 110.98 87.7604 110.98 86.6559V80.6194C110.98 79.5148 110.085 78.6194 108.98 78.6194Z" fill="black"/>
<path d="M144.358 79.8739H112.53V81.2679H144.358V79.8739Z" fill="black"/>
<path d="M137.563 83.08H112.53V84.474H137.563V83.08Z" fill="black"/>
<path d="M142.093 86.1467H112.53V87.5407H142.093V86.1467Z" fill="black"/>
<path d="M108.98 94.3711H104.397C103.293 94.3711 102.397 95.2665 102.397 96.3711V102.408C102.397 103.512 103.293 104.408 104.397 104.408H108.98C110.085 104.408 110.98 103.512 110.98 102.408V96.3711C110.98 95.2665 110.085 94.3711 108.98 94.3711Z" fill="black"/>
<path d="M144.358 95.6257H112.53V97.0196H144.358V95.6257Z" fill="black"/>
<path d="M137.563 98.8318H112.53V100.226H137.563V98.8318Z" fill="black"/>
<path d="M142.093 101.898H112.53V103.292H142.093V101.898Z" fill="black"/>
<path d="M64 64C67.0376 64 72.0001 67.2091 72.0001 65C72.0001 62.7909 69.5376 61 66.5001 61C63.4625 61 61 63.7909 61 66C61 68.2091 60.9625 64 64 64Z" fill="black"/>
</svg>
