<svg width="153" height="145" viewBox="0 0 153 145" fill="none" xmlns="http://www.w3.org/2000/svg">
<ellipse cx="76.5" cy="72.4122" rx="76.5" ry="72.4122" fill="#2D2D43"/>
<path d="M22 23L21.6621 23.3686L21.8604 23.5503L22.1213 23.4851L22 23ZM7.87202 10.0494L8.04935 14.128L12.128 13.9506L11.9506 9.87202L7.87202 10.0494ZM32 20.5L32.4682 20.6756L32.8025 19.784L31.8787 20.0149L32 20.5ZM29 28.5L28.5318 28.3244L28.4451 28.5556L28.576 28.765L29 28.5ZM34 36.5L34.4341 36.7481L34.5824 36.4885L34.424 36.235L34 36.5ZM30 43.5L29.5659 43.2519L29.363 43.607L29.6707 43.8763L30 43.5ZM22.3379 22.6314L10.3379 11.6314L9.66214 12.3686L21.6621 23.3686L22.3379 22.6314ZM31.8787 20.0149L21.8787 22.5149L22.1213 23.4851L32.1213 20.9851L31.8787 20.0149ZM29.4682 28.6756L32.4682 20.6756L31.5318 20.3244L28.5318 28.3244L29.4682 28.6756ZM34.424 36.235L29.424 28.235L28.576 28.765L33.576 36.765L34.424 36.235ZM34.3293 46.6237L30.3293 43.1237L29.6707 43.8763L33.6707 47.3763L34.3293 46.6237ZM30.4341 43.7481L34.4341 36.7481L33.5659 36.2519L29.5659 43.2519L30.4341 43.7481Z" fill="#8682A4"/>
<path d="M62.75 110.75L62.4121 111.119L62.6104 111.3L62.8713 111.235L62.75 110.75ZM48.622 97.7994L48.7994 101.878L52.878 101.701L52.7006 97.622L48.622 97.7994ZM72.75 108.25L73.2182 108.426L73.5525 107.534L72.6287 107.765L72.75 108.25ZM69.75 116.25L69.2818 116.074L69.1951 116.306L69.326 116.515L69.75 116.25ZM74.75 124.25L75.1841 124.498L75.3324 124.239L75.174 123.985L74.75 124.25ZM70.75 131.25L70.3159 131.002L70.113 131.357L70.4207 131.626L70.75 131.25ZM63.0879 110.381L51.0879 99.3814L50.4121 100.119L62.4121 111.119L63.0879 110.381ZM72.6287 107.765L62.6287 110.265L62.8713 111.235L72.8713 108.735L72.6287 107.765ZM70.2182 116.426L73.2182 108.426L72.2818 108.074L69.2818 116.074L70.2182 116.426ZM75.174 123.985L70.174 115.985L69.326 116.515L74.326 124.515L75.174 123.985ZM75.0793 134.374L71.0793 130.874L70.4207 131.626L74.4207 135.126L75.0793 134.374ZM71.1841 131.498L75.1841 124.498L74.3159 124.002L70.3159 131.002L71.1841 131.498Z" fill="#8682A4"/>
</svg>
