<svg width="61" height="61" viewBox="0 0 61 61" fill="none" xmlns="http://www.w3.org/2000/svg">
<path d="M26.75 8H11.75C10.7554 8 9.80161 8.39509 9.09835 9.09835C8.39509 9.80161 8 10.7554 8 11.75V39.25C8 40.2446 8.39509 41.1984 9.09835 41.9016C9.80161 42.6049 10.7554 43 11.75 43H49.25C50.2446 43 51.1984 42.6049 51.9016 41.9016C52.6049 41.1984 53 40.2446 53 39.25V26.75M30.5 43V53" stroke="#FEFEFE" stroke-width="4" stroke-linecap="round" stroke-linejoin="round"/>
<path d="M40.5 8L35.5 13L40.5 18M48 8L53 13L48 18M18 53H43" stroke="#FEFEFE" stroke-width="4" stroke-linecap="round" stroke-linejoin="round"/>
</svg>
