<svg width="61" height="61" viewBox="0 0 61 61" fill="none" xmlns="http://www.w3.org/2000/svg">
<path d="M47.58 37.515C48.4696 35.3546 48.9525 33.0417 48.9525 30.5C48.9525 28.67 48.673 26.9162 48.19 25.2896C46.538 25.6708 44.8096 25.8742 43.005 25.8742C39.3094 25.8781 35.6669 24.9935 32.3848 23.2949C29.1026 21.5963 26.2769 19.1335 24.1459 16.1142C21.8662 21.63 17.5658 26.0668 12.1238 28.5175C12.0221 29.1529 12.0221 29.8392 12.0221 30.5C12.0221 32.9266 12.5001 35.3293 13.4287 37.5712C14.3573 39.813 15.7183 41.85 17.4342 43.5659C20.8995 47.0311 25.5994 48.9779 30.5 48.9779C33.1688 48.9779 35.7359 48.3933 38.0488 47.3512C39.4975 50.1217 40.1584 51.4942 40.1075 51.4942C35.9392 52.8921 32.7113 53.5783 30.5 53.5783C24.3492 53.5783 18.478 51.1637 14.1571 46.8175C11.529 44.1975 9.57544 40.9793 8.46379 37.4387H5.08337V25.8742H7.85379C8.69315 21.7885 10.6229 18.0062 13.4383 14.9287C16.2537 11.8512 19.8497 9.59328 23.8448 8.39451C27.8398 7.19573 32.0849 7.10083 36.1295 8.11988C40.1741 9.13892 43.8674 11.2339 46.8175 14.1825C50.0206 17.3729 52.2054 21.4418 53.0955 25.8742H55.9167V37.4387H55.7642L46.7159 45.75L33.245 44.225V39.9804H45.5213L47.58 37.515ZM23.5613 29.9154C24.3238 29.9154 25.0609 30.2204 25.5946 30.7796C26.131 31.3204 26.432 32.0512 26.432 32.8129C26.432 33.5746 26.131 34.3055 25.5946 34.8462C25.0609 35.38 24.3238 35.685 23.5613 35.685C21.96 35.685 20.6638 34.4142 20.6638 32.8129C20.6638 31.2117 21.96 29.9154 23.5613 29.9154ZM37.4134 29.9154C39.0146 29.9154 40.2855 31.2117 40.2855 32.8129C40.2855 34.4142 39.0146 35.685 37.4134 35.685C35.8121 35.685 34.5159 34.4142 34.5159 32.8129C34.5159 32.0444 34.8211 31.3075 35.3645 30.7641C35.9079 30.2207 36.6449 29.9154 37.4134 29.9154Z" fill="#FEFEFE"/>
</svg>
