<svg width="100" height="49" viewBox="0 0 100 49" fill="none" xmlns="http://www.w3.org/2000/svg">
<rect width="100" height="48.9209" rx="3" fill="#FEFEFE"/>
<rect x="30.2158" y="9.35254" width="25.1799" height="5.7554" rx="2.8777" fill="#D9DAE3"/>
<rect x="30.2158" y="42.446" width="13.6691" height="2.8777" rx="1.43885" transform="rotate(-90 30.2158 42.446)" fill="#D9DAE3"/>
<rect x="38.1295" y="42.446" width="16.5468" height="2.8777" rx="1.43885" transform="rotate(-90 38.1295 42.446)" fill="#D9DAE3"/>
<rect x="46.0432" y="42.446" width="18.705" height="2.8777" rx="1.43885" transform="rotate(-90 46.0432 42.446)" fill="#D9DAE3"/>
<rect x="53.9568" y="42.446" width="15.1079" height="2.8777" rx="1.43885" transform="rotate(-90 53.9568 42.446)" fill="#D9DAE3"/>
<rect x="61.8705" y="42.446" width="10.0719" height="2.8777" rx="1.43885" transform="rotate(-90 61.8705 42.446)" fill="#D9DAE3"/>
<rect x="69.7842" y="42.446" width="12.2302" height="2.8777" rx="1.43885" transform="rotate(-90 69.7842 42.446)" fill="#D9DAE3"/>
<rect x="77.6979" y="42.446" width="10.0719" height="2.8777" rx="1.43885" transform="rotate(-90 77.6979 42.446)" fill="#D9DAE3"/>
<circle cx="14.0288" cy="13.3093" r="8.27338" fill="#639CD9"/>
</svg>
