<svg width="100" height="86" viewBox="0 0 100 86" fill="none" xmlns="http://www.w3.org/2000/svg">
<g clip-path="url(#clip0_7_7502)">
<path d="M78.1182 13.809H71.3236V71.7362C71.3236 72.645 71.1446 73.545 70.7968 74.3847C70.449 75.2243 69.9392 75.9873 69.2966 76.6299C68.6539 77.2726 67.8909 77.7824 67.0513 78.1302C66.2116 78.478 65.3116 78.657 64.4028 78.657H12.4558V78.7232C12.4558 79.6321 12.6348 80.5321 12.9826 81.3717C13.3304 82.2114 13.8402 82.9744 14.4829 83.617C15.1255 84.2597 15.8885 84.7695 16.7282 85.1173C17.5678 85.4651 18.4678 85.6441 19.3767 85.6441H78.1182C79.027 85.6441 79.927 85.4651 80.7667 85.1173C81.6064 84.7695 82.3693 84.2597 83.012 83.617C83.6546 82.9744 84.1644 82.2114 84.5122 81.3717C84.86 80.5321 85.039 79.6321 85.039 78.7232V20.7298C85.039 19.821 84.86 18.921 84.5122 18.0813C84.1644 17.2416 83.6546 16.4787 83.012 15.836C82.3693 15.1934 81.6063 14.6836 80.7667 14.3358C79.927 13.988 79.027 13.809 78.1182 13.809Z" fill="#F2F2F2"/>
<path d="M69.7106 7.8667H2.87266C1.28614 7.8667 0 9.15283 0 10.7394V76.8292C0 78.4157 1.28614 79.7018 2.87266 79.7018H69.7106C71.2971 79.7018 72.5832 78.4157 72.5832 76.8292V10.7394C72.5832 9.15283 71.2971 7.8667 69.7106 7.8667Z" fill="#F2F2F2"/>
<path d="M6.92092 9.28992C5.46287 9.28992 4.06454 9.86912 3.03355 10.9001C2.00255 11.9311 1.42334 13.3294 1.42334 14.7875V72.781C1.42334 74.239 2.00255 75.6374 3.03354 76.6684C4.06454 77.6994 5.46287 78.2786 6.92092 78.2786H44.4112C59.1841 78.2786 71.1599 66.3027 71.1599 51.5298V14.7875C71.1599 13.3294 70.5807 11.9311 69.5497 10.9001C68.5187 9.86912 67.1204 9.28992 65.6623 9.28992H6.92092Z" fill="white"/>
<path d="M74.1717 48.2095C73.8714 48.2927 73.5566 48.3097 73.2491 48.2593C72.9417 48.2089 72.6488 48.0923 72.3908 47.9175C72.1328 47.7428 71.9159 47.5141 71.755 47.2473C71.5941 46.9805 71.493 46.6819 71.4589 46.3722L61.194 43.2722L61.3534 40.2222L73.5182 43.9932C74.0438 43.9745 74.558 44.1492 74.9634 44.4842C75.3688 44.8193 75.6372 45.2914 75.7177 45.8111C75.7982 46.3308 75.6853 46.862 75.4004 47.3041C75.1155 47.7461 74.6783 48.0683 74.1717 48.2095Z" fill="#FFB6B6"/>
<path d="M39.6118 32.476C38.5724 31.6086 40.0944 27.3095 39.684 26.0635C39.6594 25.988 39.6361 25.9124 39.614 25.8365C39.5675 25.6757 39.5779 25.5038 39.6434 25.3498L43.5015 23.535C44.5068 23.9458 45.433 24.5281 46.2389 25.256L52.199 32.0631L58.12 37.4108L60.7181 38.569L69.3273 42.4089L69.2381 42.6663L69.2374 42.667L68.291 45.4154L68.291 45.4169L70.1841 46.7366L63.9864 45.803L59.8876 44.1122L55.9408 42.4845C50.1134 38.9775 40.5257 37.1597 39.6118 32.476Z" fill="#6C63FF"/>
<path d="M67.0806 64.0221C66.9668 64.0738 66.8399 64.0894 66.717 64.0666C66.5941 64.0438 66.4812 63.9838 66.3935 63.8947C66.3059 63.8056 66.2478 63.6918 66.227 63.5685C66.2062 63.4453 66.2239 63.3186 66.2775 63.2057C66.269 63.1433 66.263 63.0985 66.2545 63.0361C66.2444 63.0258 66.2344 63.0155 66.2243 63.0053C65.2056 61.972 63.4437 62.688 63.4258 64.1389C63.4098 65.4266 63.2694 66.7664 63.5935 67.9913C63.737 68.5327 63.9734 69.045 64.292 69.5056C62.2741 67.5885 60.6921 65.26 59.6531 62.6778C59.393 62.0296 59.1694 61.3674 58.9833 60.6942C58.8312 60.1421 58.7037 59.5846 58.6008 59.0215C58.0457 55.9652 58.2234 52.8207 59.1195 49.8464C59.7999 49.0223 60.2113 48.0095 60.2983 46.9444C60.3308 46.561 60.3077 46.175 60.2296 45.7983C60.1365 45.8505 59.2648 44.4636 59.3021 44.3421C59.082 44.1892 58.7956 44.1842 58.5648 44.0414C57.4173 43.3313 56.4634 43.9179 56.4776 45.5021C55.5663 46.5365 55.9385 47.4972 57.008 48.1359C57.6885 48.5423 58.0671 49.3095 58.7094 49.779C58.6898 49.8467 58.6679 49.9134 58.6483 49.9811C58.2916 51.2223 58.0575 52.4955 57.9492 53.7824C57.6251 52.5331 56.8267 51.1916 56.074 50.4222C55.2168 49.5454 54.0449 48.9873 52.9612 48.3666C51.6595 47.6211 50.0785 48.8078 50.4809 50.2528C50.4848 50.2668 50.4888 50.2808 50.4927 50.2947C50.6238 50.3122 50.754 50.3343 50.8835 50.3609C51.0465 50.3953 51.1953 50.4781 51.3104 50.5985C51.4255 50.7189 51.5016 50.8713 51.5287 51.0356C51.5557 51.2 51.5325 51.3687 51.462 51.5197C51.3916 51.6706 51.2771 51.7967 51.1338 51.8816L51.1191 51.8902C51.3115 52.2601 51.5317 52.6148 51.7779 52.9513C52.2854 56.8903 54.7989 57.3918 57.6674 56.31C57.7431 56.317 57.8172 56.3247 57.8922 56.3301C57.9656 58.0776 58.2658 59.8081 58.7854 61.4781C59.095 62.4621 59.4837 63.4195 59.9477 64.3409L59.9293 64.309C59.298 63.3307 58.3484 62.6002 57.2409 62.241C55.6019 61.7222 53.7104 62.0474 52.0539 61.7663C51.2565 61.631 50.6389 62.4664 51.0482 63.1639C51.0547 63.1751 51.0613 63.1862 51.0679 63.1973C51.2986 63.1986 51.5289 63.2143 51.7576 63.2442C51.8887 63.2617 52.0189 63.2837 52.1484 63.3104C52.3114 63.3448 52.4602 63.4276 52.5753 63.548C52.6904 63.6684 52.7665 63.8208 52.7935 63.9851C52.8206 64.1495 52.7974 64.3182 52.7269 64.4691C52.6564 64.6201 52.542 64.7462 52.3987 64.831L52.384 64.8397C52.3733 64.8458 52.3643 64.8513 52.3537 64.8575C53.0167 65.5307 53.7907 66.0847 54.6417 66.4953C56.4674 69.3798 59.0645 68.6821 61.3522 66.7122L61.3538 66.7116C62.1513 67.8591 63.0659 68.9206 64.0828 69.8791L68.5756 68.0785C68.5717 68.0222 68.5655 67.9648 68.56 67.9091C68.1546 68.1019 67.7272 68.2443 67.2872 68.3333C67.4566 67.7906 67.6247 67.2448 67.7941 66.7022C67.7985 66.6916 67.8022 66.6807 67.8054 66.6697C67.8906 66.3926 67.978 66.1164 68.0632 65.8393L68.0632 65.839C67.815 65.1937 67.4848 64.5831 67.0807 64.0221L67.0806 64.0221Z" fill="#F2F2F2"/>
<path d="M42.3863 67.9759L42.3348 67.9115C42.1865 66.9577 42.3863 67.9759 42.3863 67.9759Z" fill="#2F2E41"/>
<path d="M45.018 78.265H30.6248C29.5066 75.4851 28.7304 73.4969 28.7304 73.4969C28.7304 73.4969 28.5419 75.4443 28.2729 78.265H15.2606C15.1388 70.6 14.9684 62.7298 14.9122 60.2303L39.8884 60.7867L42.3727 63.9372C42.3812 63.9898 42.3897 64.0478 42.4003 64.1133C42.5009 64.7535 43.8531 71.6247 45.018 78.265Z" fill="#2F2E41"/>
<path d="M44.7997 24.355L44.7973 24.3506C44.7179 24.2032 44.5902 24.0877 44.4356 24.0235C42.8553 22.7974 41.1251 22.2385 39.1832 22.6207C38.8653 21.6583 38.5688 21.6583 38.5688 21.6583L34.3571 20.2673L33.7513 16.5669L23.3742 16.2157L22.4311 20.8334C22.4311 20.8334 16.6308 21.8731 16.6308 22.625C16.6308 23.3769 17.5975 23.3769 16.6308 23.3769C15.6641 23.3769 15.4052 22.5176 14.5684 23.3769C14.4968 23.4491 14.4211 23.5173 14.3418 23.581C14.3321 23.5896 14.3214 23.5971 14.3117 23.6057C13.3661 24.3495 12.6229 25.3195 12.1508 26.4261C11.6787 27.5327 11.4928 28.7404 11.6103 29.9377L13.3944 47.6856L15.2989 66.6236L41.3615 67.7084L43.107 51.5933L44.8825 24.7805C44.8983 24.6336 44.8695 24.4853 44.7997 24.355Z" fill="#6C63FF"/>
<path d="M2.01594 71.9486C2.16474 72.3229 2.3149 72.5972 2.46641 72.7329L53.0128 72.8403C53.1643 72.7047 53.3145 72.4304 53.4633 72.056C55.2312 67.6084 51.8961 62.7855 47.1101 62.7764L8.37179 62.7029C3.59218 62.6938 0.250422 67.507 2.01594 71.9486Z" fill="white"/>
<path d="M53.0539 72.9478L53.0127 72.9477L2.4253 72.8402L2.39483 72.8129C2.23727 72.6718 2.08072 72.4022 1.91619 71.9883C1.49774 70.9536 1.3434 69.831 1.46708 68.7218C1.59076 67.6126 1.98857 66.5515 2.62465 65.6344C3.25973 64.6983 4.11437 63.9319 5.11391 63.4021C6.11345 62.8724 7.22749 62.5955 8.35871 62.5956H8.37203L47.1103 62.6691C48.2456 62.6713 49.3631 62.9514 50.3653 63.4849C51.3674 64.0184 52.2237 64.7891 52.8594 65.7298C53.4947 66.6496 53.8915 67.7129 54.0143 68.824C54.1372 69.9351 53.9821 71.0593 53.5632 72.0958C53.3986 72.5096 53.242 72.7793 53.0845 72.9203L53.0539 72.9478ZM5.84362 72.6155L48.7028 72.4856C51.7281 72.4764 53.9535 69.5561 53.0571 66.6666C52.9724 66.3776 52.8459 66.1026 52.6816 65.8502C52.0655 64.9386 51.2356 64.1916 50.2644 63.6746C49.2932 63.1575 48.2102 62.8861 47.1099 62.8839L8.37161 62.8104H8.35871C7.86681 62.8268 7.38174 62.9305 6.92614 63.1167C4.42388 64.0635 2.75064 66.4436 2.61151 69.1154C2.60974 69.1494 2.60797 69.1835 2.60621 69.2175C2.58437 69.6413 2.64621 70.0653 2.78822 70.4652C2.93023 70.8651 3.14961 71.2332 3.43385 71.5483C3.71809 71.8635 4.06162 72.1195 4.44482 72.3019C4.82802 72.4843 5.24338 72.5894 5.6672 72.6112C5.72596 72.6142 5.78477 72.6157 5.84362 72.6155Z" fill="#E6E6E6"/>
<path d="M62.8432 33.992C62.2896 31.6669 62.3819 29.3769 63.3298 27.1332C63.3399 26.9944 63.4045 26.8653 63.5096 26.7741C63.6148 26.6829 63.7518 26.6371 63.8906 26.6468L69.0705 27.0143C69.2093 27.0243 69.3384 27.089 69.4296 27.1941C69.5208 27.2992 69.5666 27.4363 69.5569 27.5751L69.0702 34.4338C69.0602 34.5726 68.9956 34.7018 68.8905 34.793C68.7853 34.8842 68.6483 34.93 68.5095 34.9203L63.3296 34.5527C63.1908 34.5427 63.0616 34.478 62.9704 34.3729C62.8793 34.2678 62.8335 34.1308 62.8432 33.992Z" fill="#F2F2F2"/>
<path d="M63.3875 31.9485C62.9445 30.8027 63.2278 29.227 63.7004 27.5391C63.7098 27.409 63.7703 27.2881 63.8688 27.2027C63.9673 27.1173 64.0956 27.0744 64.2256 27.0835L68.6772 27.3993C68.8072 27.4087 68.9282 27.4693 69.0136 27.5677C69.099 27.6662 69.1419 27.7945 69.1328 27.9245L68.6998 34.0278C68.6904 34.1578 68.6298 34.2788 68.5314 34.3642C68.4329 34.4496 68.3046 34.4925 68.1746 34.4834L65.4169 34.2877C64.8378 34.246 64.2989 33.9763 63.9185 33.5377C63.5381 33.0992 63.3471 32.5276 63.3875 31.9485Z" fill="white"/>
<path d="M66.4695 32.2475C66.3335 32.2241 66.1976 32.2007 66.0616 32.1774C66.1242 32.0295 66.1604 31.8718 66.1684 31.7114C66.2327 30.853 66.2392 29.9864 66.2736 29.1262C66.2727 29.0948 66.2627 29.0643 66.2449 29.0383C66.227 29.0124 66.202 28.9922 66.173 28.9802C66.1439 28.9681 66.1119 28.9648 66.081 28.9705C66.05 28.9762 66.0214 28.9907 65.9985 29.0123C65.657 29.2952 65.3155 29.578 64.974 29.8609C64.8142 29.9933 65.0433 30.2201 65.2019 30.0887C65.447 29.8857 65.6921 29.6827 65.9372 29.4797C65.9147 30.0433 65.8922 30.6069 65.8697 31.1705C65.8589 31.441 65.8918 31.7695 65.7811 32.0238C65.7659 32.0581 65.7462 32.0901 65.7223 32.1191C65.5718 32.0932 65.4212 32.0674 65.2707 32.0415C65.1624 32.0229 65.0248 32.1133 65.0725 32.2397C65.1761 32.5146 65.4816 32.6014 65.7435 32.4955C65.7666 32.4851 65.7889 32.4731 65.8103 32.4597L66.3838 32.5582C66.5867 32.593 66.6738 32.2826 66.4695 32.2475Z" fill="#6C63FF"/>
<path d="M92.9189 57.0857C92.3653 54.7607 92.4576 52.4706 93.4055 50.227C93.4155 50.0882 93.4802 49.959 93.5853 49.8678C93.6904 49.7766 93.8275 49.7308 93.9663 49.7405L99.1461 50.1081C99.285 50.1181 99.4141 50.1827 99.5053 50.2879C99.5965 50.393 99.6423 50.53 99.6326 50.6688L99.1459 57.5276C99.1359 57.6664 99.0713 57.7955 98.9661 57.8867C98.861 57.9779 98.724 58.0237 98.5852 58.014L93.4053 57.6465C93.2665 57.6365 93.1373 57.5718 93.0461 57.4667C92.9549 57.3615 92.9092 57.2245 92.9189 57.0857Z" fill="#F2F2F2"/>
<path d="M93.4632 55.0423C93.0202 53.8966 93.3035 52.3208 93.7761 50.6329C93.7855 50.5029 93.846 50.3819 93.9445 50.2965C94.0429 50.2111 94.1713 50.1683 94.3013 50.1773L98.7529 50.4932C98.8829 50.5026 99.0039 50.5631 99.0893 50.6616C99.1747 50.76 99.2176 50.8884 99.2085 51.0184L98.7755 57.1217C98.7661 57.2517 98.7055 57.3727 98.6071 57.4581C98.5086 57.5435 98.3803 57.5864 98.2503 57.5773L95.4926 57.3816C94.9135 57.3399 94.3746 57.0701 93.9942 56.6316C93.6137 56.193 93.4228 55.6215 93.4632 55.0423Z" fill="white"/>
<path d="M96.3692 53.8785C96.4284 53.8509 96.4844 53.8169 96.5362 53.7772C96.6743 53.6634 96.7763 53.512 96.83 53.3413C96.8836 53.1706 96.8866 52.9881 96.8386 52.8157C96.6297 52.0484 95.7118 52.0437 95.0781 52.136C94.8737 52.1658 94.9606 52.4763 95.1638 52.4467C95.5908 52.3845 96.2613 52.3342 96.4908 52.8007C96.5432 52.9103 96.5618 53.0329 96.5444 53.1531C96.5269 53.2733 96.4741 53.3856 96.3927 53.4757C96.2954 53.5734 96.1672 53.6343 96.03 53.6482C95.8972 53.5904 95.7529 53.5635 95.6081 53.5695C95.4588 53.5765 95.3756 53.7937 95.5268 53.8697C95.6606 53.9363 95.808 53.9711 95.9575 53.9712C96.0814 54.031 96.185 54.1261 96.255 54.2446C96.3251 54.363 96.3586 54.4995 96.3514 54.637C96.3371 54.7307 96.3046 54.8208 96.2556 54.902C96.2065 54.9831 96.142 55.0539 96.0657 55.1101C95.9893 55.1663 95.9026 55.207 95.8106 55.2297C95.7185 55.2525 95.6229 55.2569 95.5291 55.2426L95.5252 55.242C95.3227 55.2013 95.236 55.5118 95.4395 55.5527C95.7124 55.6042 95.9946 55.5451 96.224 55.3884C96.4534 55.2318 96.6111 54.9904 96.6626 54.7175C96.6653 54.7027 96.6678 54.6879 96.67 54.673C96.6827 54.5265 96.6623 54.379 96.6103 54.2414C96.5582 54.1039 96.4758 53.9798 96.3692 53.8785Z" fill="#6C63FF"/>
<path d="M87.1186 20.3505C86.565 18.0254 86.6573 15.7354 87.6052 13.4918C87.6152 13.3529 87.6799 13.2238 87.785 13.1326C87.8902 13.0414 88.0272 12.9956 88.166 13.0053L93.3459 13.3729C93.4847 13.3829 93.6138 13.4475 93.705 13.5526C93.7962 13.6578 93.842 13.7948 93.8323 13.9336L93.3456 20.7923C93.3356 20.9311 93.271 21.0603 93.1658 21.1515C93.0607 21.2427 92.9237 21.2885 92.7849 21.2788L87.605 20.9112C87.4662 20.9012 87.337 20.8366 87.2458 20.7314C87.1546 20.6263 87.1089 20.4893 87.1186 20.3505Z" fill="#F2F2F2"/>
<path d="M87.6629 18.307C87.2199 17.1612 87.5032 15.5855 87.9758 13.8976C87.9852 13.7676 88.0457 13.6466 88.1442 13.5612C88.2426 13.4758 88.371 13.4329 88.501 13.442L92.9526 13.7579C93.0826 13.7672 93.2036 13.8278 93.289 13.9262C93.3744 14.0247 93.4173 14.153 93.4082 14.283L92.9752 20.3864C92.9658 20.5164 92.9052 20.6373 92.8068 20.7228C92.7083 20.8082 92.58 20.851 92.45 20.8419L89.6923 20.6463C89.1132 20.6045 88.5743 20.3348 88.1939 19.8962C87.8135 19.4577 87.6225 18.8861 87.6629 18.307Z" fill="white"/>
<path d="M90.4004 15.2356C89.944 15.0772 89.4366 15.4381 89.3848 15.906C89.3261 16.4363 89.8966 16.855 90.3904 16.7109C90.5891 16.6529 90.5046 16.3418 90.3048 16.4001C89.9428 16.5058 89.5566 16.1149 89.7647 15.7655C89.812 15.6811 89.8839 15.6132 89.9707 15.5707C90.0576 15.5282 90.1553 15.5131 90.251 15.5276C90.3321 15.55 90.4069 15.5912 90.4693 15.6478C90.5317 15.7045 90.5799 15.7749 90.6101 15.8535C90.7877 16.2538 90.5767 16.6601 90.2969 16.9511C90.1373 17.117 89.9501 17.2459 89.7782 17.3972C89.6945 17.4603 89.6251 17.5403 89.5743 17.632C89.5235 17.7236 89.4925 17.8249 89.4832 17.9293C89.4877 18.0467 89.5243 18.1606 89.5889 18.2587C89.6535 18.3568 89.7437 18.4354 89.8497 18.4859C90.1244 18.6272 90.4369 18.5823 90.7292 18.5353C90.9334 18.5024 90.8467 18.1918 90.6435 18.2245C90.3879 18.2657 90.0052 18.328 89.8432 18.0615C89.7045 17.8332 89.9903 17.6328 90.146 17.5114C90.5374 17.2062 90.9331 16.8122 90.9919 16.2933C91.04 15.8683 90.824 15.3826 90.4004 15.2356Z" fill="#6C63FF"/>
<path d="M11.7935 46.6312L14.3457 47.7805C13.1459 48.7537 11.3188 50.063 9.52926 50.6688L6.68603 48.73C5.62694 44.6462 6.27571 40.4378 7.54856 36.8792C8.25377 34.9018 9.18895 33.0141 10.3349 31.255C10.2175 30.0577 10.4034 28.85 10.8755 27.7434C11.3476 26.6368 12.0907 25.6669 13.0363 24.923C13.047 24.9144 13.0567 24.9069 13.0664 24.8983C14.0082 25.7156 14.7775 26.7125 15.3293 27.8308C15.8812 28.949 16.2044 30.1661 16.2802 31.4108L16.3371 32.3517L16.451 34.2057L16.7399 38.9404L13.3134 44.2681L11.7935 46.6312Z" fill="#6C63FF"/>
<path d="M19.1359 66.8445C19.1657 66.8819 19.2036 66.9121 19.2468 66.9327C19.2899 66.9534 19.3372 66.964 19.3851 66.9637H36.8225C36.8702 66.9637 36.9173 66.953 36.9603 66.9324C37.0033 66.9119 37.0413 66.882 37.0713 66.845C37.1013 66.808 37.1227 66.7647 37.134 66.7183C37.1452 66.672 37.1459 66.6237 37.1361 66.577L36.8655 65.2913C36.8542 65.2389 36.8301 65.1901 36.7952 65.1494C36.7603 65.1087 36.7158 65.0773 36.6657 65.0582C36.6294 65.044 36.5908 65.0367 36.5518 65.0367H19.6547C19.6157 65.0367 19.5771 65.044 19.5408 65.0582C19.4907 65.0773 19.4462 65.1087 19.4113 65.1494C19.3764 65.1901 19.3522 65.2389 19.341 65.2913L19.0703 66.577C19.0607 66.6237 19.0616 66.6719 19.0729 66.7182C19.0843 66.7644 19.1058 66.8076 19.1359 66.8445Z" fill="#2F2E41"/>
<path d="M12.4602 38.0622V58.1764C12.4604 58.4327 12.5623 58.6785 12.7436 58.8597C12.9248 59.041 13.1706 59.1429 13.4269 59.1431H43.234C43.4904 59.1429 43.7361 59.041 43.9174 58.8597C44.0986 58.6785 44.2006 58.4327 44.2008 58.1764V38.0622C44.2001 37.8061 44.0981 37.5607 43.9169 37.3797C43.7357 37.1987 43.4901 37.0969 43.234 37.0966H13.4269C13.1708 37.0969 12.9253 37.1987 12.7441 37.3797C12.5629 37.5607 12.4608 37.8061 12.4602 38.0622Z" fill="#3F3D56"/>
<path d="M24.6011 55.1967V66.213H32.3187V55.1967C32.3188 55.1175 32.2935 55.0403 32.2466 54.9765C32.1996 54.9127 32.1334 54.8657 32.0577 54.8423C32.022 54.8305 31.9846 54.8247 31.9471 54.8251H24.9738C24.8751 54.8249 24.7804 54.8639 24.7105 54.9335C24.6406 55.0032 24.6013 55.0977 24.6011 55.1964V55.1967ZM27.6129 58.982C27.615 58.7648 27.7027 58.5573 27.857 58.4044C28.0112 58.2516 28.2196 58.1658 28.4368 58.1658C28.654 58.1658 28.8623 58.2516 29.0166 58.4044C29.1709 58.5573 29.2586 58.7648 29.2607 58.982V60.2602C29.2595 60.478 29.1723 60.6864 29.0179 60.84C28.8635 60.9936 28.6546 61.0798 28.4368 61.0798C28.219 61.0798 28.0101 60.9936 27.8557 60.84C27.7013 60.6864 27.614 60.478 27.6129 60.2602V58.982Z" fill="#2F2E41"/>
<path d="M29.1052 15.8033C32.8145 15.8033 35.8214 12.7964 35.8214 9.08715C35.8214 5.37791 32.8145 2.37097 29.1052 2.37097C25.396 2.37097 22.389 5.37791 22.389 9.08715C22.389 12.7964 25.396 15.8033 29.1052 15.8033Z" fill="#FFB6B6"/>
<path d="M37.1467 7.91222C36.4226 8.13702 35.7246 8.26953 35.2537 7.67559C34.7828 7.08165 34.9059 6.40253 34.2054 6.11621C33.6399 5.88432 32.9868 5.9837 32.4165 6.19904C32.3148 6.23689 32.2154 6.27948 32.1184 6.32207C32.064 6.27474 32.0095 6.2298 31.9504 6.18719C31.5052 5.87061 30.9556 5.7368 30.4147 5.81333C30.81 6.0043 31.1353 6.31472 31.3446 6.70068C31.1506 6.79769 30.9421 6.8702 30.7554 6.97753C28.1905 8.45217 25.3381 9.04606 25.5709 6.58474C26.347 8.62919 25.7436 9.358 24.6055 11.225L24.5605 11.3338C24.6741 10.844 23.8755 10.8208 23.1857 10.9884C22.6762 11.1121 23.0059 12.2999 23.659 13.118C22.199 10.9197 20.0123 7.56341 21.9032 5.87958C22.1821 5.63123 22.3571 5.28085 22.4072 4.38409C22.4369 3.8524 23.3419 3.71917 23.8199 3.9558C23.889 3.15633 24.1684 2.38939 24.6297 1.73278C25.091 1.07617 25.7178 0.55326 26.4464 0.217092C27.9088 -0.433632 29.396 0.567377 30.9849 0.761331C31.8665 0.868946 32.5351 1.22402 32.5703 2.3491C32.5938 3.09834 33.7227 3.3666 34.461 3.49911C34.9295 3.58194 35.4572 3.53224 35.8311 3.82802C36.2641 4.17114 36.2688 4.77453 36.2665 5.35427C35.8427 5.34218 35.4251 5.45669 35.0668 5.68317C35.5053 5.6942 35.9293 5.84324 36.2783 6.10911C36.285 6.11326 36.2913 6.11801 36.2972 6.12331C36.425 7.09822 36.3729 7.3041 37.1467 7.91222Z" fill="#2F2E41"/>
<path d="M41.9905 40.6602C44.6149 39.8447 47.4243 40.7266 50.063 39.9739C50.6699 39.8079 51.2436 39.5384 51.759 39.1774C52.1985 38.8441 52.6113 38.4768 52.9933 38.0789C53.7871 37.2938 54.6491 36.4694 55.8417 36.4785C57.4121 36.4905 58.6179 37.657 59.6647 38.6871C59.8126 38.8327 60.0406 38.605 59.8925 38.4592C58.9307 37.5127 57.8915 36.5141 56.5224 36.2316C55.9082 36.0954 55.2671 36.1487 54.6838 36.3843C54.1778 36.6143 53.7155 36.9304 53.3177 37.3185C52.8961 37.7052 52.5072 38.1262 52.0798 38.5067C51.6337 38.9126 51.1197 39.2369 50.5614 39.4651C49.3517 39.9468 48.0248 40.0049 46.7382 39.9908C45.1231 39.9732 43.4696 39.8633 41.9049 40.3495C41.7075 40.4108 41.7917 40.722 41.9905 40.6602Z" fill="#3F3D56"/>
<path d="M60.2401 36.5154L61.0468 37.9375L61.4372 38.6256C61.5066 38.7479 61.5778 38.8693 61.6454 38.9926C61.6869 39.0683 61.7775 39.205 61.691 39.2767C61.6149 39.3139 61.5295 39.3272 61.4457 39.315C61.3035 39.3153 61.1612 39.3121 61.019 39.3107L60.219 39.3026L58.5656 39.2858C58.5238 39.2873 58.4842 39.3049 58.4552 39.3349C58.4261 39.365 58.4099 39.4051 58.4099 39.4469C58.4099 39.4887 58.4261 39.5289 58.4552 39.5589C58.4842 39.589 58.5238 39.6066 58.5656 39.6081C59.5254 39.6178 60.4858 39.6381 61.4457 39.6372C61.6132 39.6533 61.7808 39.6074 61.9168 39.5084C61.9834 39.4421 62.0275 39.3566 62.0428 39.2639C62.0581 39.1712 62.0439 39.076 62.0022 38.9918C61.9076 38.7853 61.7987 38.5856 61.6764 38.3942L61.3251 37.7748L60.5184 36.3527C60.496 36.3174 60.4609 36.2921 60.4202 36.2822C60.3796 36.2723 60.3368 36.2785 60.3007 36.2996C60.2646 36.3207 60.2381 36.355 60.2268 36.3953C60.2155 36.4355 60.2203 36.4786 60.2401 36.5154Z" fill="#3F3D56"/>
<path d="M70.903 40H63.4882C63.4476 40.0002 63.4074 39.9923 63.3698 39.9769C63.3322 39.9615 63.2981 39.9389 63.2693 39.9103C63.2404 39.8817 63.2175 39.8477 63.2019 39.8102C63.1862 39.7728 63.1781 39.7326 63.178 39.692C63.1779 39.6514 63.1857 39.6111 63.2012 39.5736C63.2166 39.536 63.2393 39.5019 63.2679 39.4731C63.2966 39.4443 63.3306 39.4215 63.3681 39.4059C63.4056 39.3902 63.4457 39.3822 63.4863 39.3821C63.487 39.3821 63.4876 39.3821 63.4882 39.3821H70.903C70.9436 39.3819 70.9838 39.3897 71.0214 39.4051C71.059 39.4205 71.0932 39.4432 71.122 39.4718C71.1508 39.5004 71.1737 39.5344 71.1893 39.5719C71.205 39.6093 71.2131 39.6495 71.2132 39.6901C71.2134 39.7307 71.2055 39.7709 71.1901 39.8085C71.1746 39.846 71.1519 39.8802 71.1233 39.909C71.0947 39.9377 71.0606 39.9606 71.0231 39.9762C70.9857 39.9918 70.9455 39.9999 70.9049 40C70.9043 40 70.9036 40 70.903 40Z" fill="#E6E6E6"/>
<path d="M70.903 44.9763H63.4882C63.4477 44.9764 63.4075 44.9686 63.3699 44.9531C63.3324 44.9377 63.2983 44.9151 63.2695 44.8865C63.2407 44.8579 63.2179 44.8239 63.2022 44.7864C63.1866 44.749 63.1785 44.7089 63.1783 44.6683C63.1782 44.6277 63.1861 44.5875 63.2015 44.55C63.2169 44.5125 63.2396 44.4783 63.2682 44.4496C63.2968 44.4208 63.3308 44.3979 63.3682 44.3823C63.4056 44.3666 63.4458 44.3585 63.4864 44.3584C63.487 44.3584 63.4876 44.3584 63.4882 44.3584H70.903C70.9436 44.3583 70.9838 44.3661 71.0213 44.3816C71.0589 44.397 71.093 44.4196 71.1218 44.4482C71.1505 44.4768 71.1734 44.5108 71.189 44.5483C71.2047 44.5857 71.2128 44.6258 71.2129 44.6664C71.213 44.707 71.2052 44.7472 71.1898 44.7847C71.1743 44.8222 71.1517 44.8564 71.1231 44.8852C71.0945 44.9139 71.0605 44.9368 71.0231 44.9524C70.9856 44.9681 70.9455 44.9762 70.9049 44.9763C70.9043 44.9763 70.9037 44.9763 70.903 44.9763Z" fill="#E6E6E6"/>
<path d="M78.1819 42.4881H63.4882C63.4476 42.4883 63.4074 42.4805 63.3698 42.4651C63.3322 42.4497 63.2981 42.427 63.2693 42.3984C63.2404 42.3698 63.2176 42.3358 63.2019 42.2984C63.1862 42.2609 63.1781 42.2207 63.178 42.1801C63.1779 42.1395 63.1857 42.0993 63.2012 42.0617C63.2166 42.0242 63.2393 41.9901 63.2679 41.9613C63.2966 41.9325 63.3306 41.9096 63.3681 41.894C63.4056 41.8784 63.4457 41.8703 63.4863 41.8702C63.487 41.8702 63.4876 41.8702 63.4882 41.8702H78.1819C78.2225 41.8701 78.2627 41.8779 78.3003 41.8933C78.3379 41.9087 78.372 41.9313 78.4009 41.9599C78.4297 41.9886 78.4526 42.0226 78.4682 42.06C78.4839 42.0975 78.492 42.1377 78.4921 42.1783C78.4922 42.2189 78.4844 42.2591 78.4689 42.2966C78.4535 42.3342 78.4308 42.3683 78.4022 42.3971C78.3735 42.4259 78.3395 42.4488 78.302 42.4644C78.2645 42.48 78.2244 42.4881 78.1838 42.4881C78.1831 42.4882 78.1825 42.4882 78.1819 42.4881Z" fill="#E6E6E6"/>
<path d="M68.3442 37.0821C69.9756 34.8706 72.7615 33.917 74.4416 31.7475C74.8322 31.2542 75.1349 30.6973 75.3362 30.1012C75.4929 29.5723 75.6079 29.0319 75.68 28.485C75.8545 27.3822 76.0607 26.2075 77.0269 25.5084C78.2993 24.5878 79.9618 24.8134 81.4153 25.0233C81.4568 25.0282 81.4986 25.0168 81.5319 24.9914C81.5652 24.9661 81.5873 24.9288 81.5936 24.8875C81.5999 24.8462 81.5899 24.804 81.5657 24.7699C81.5415 24.7358 81.505 24.7124 81.4639 24.7047C80.1283 24.5119 78.6995 24.3229 77.4291 24.9063C76.8536 25.1603 76.3686 25.583 76.0383 26.1183C75.7668 26.6034 75.5816 27.1318 75.4909 27.6802C75.3803 28.2415 75.3163 28.811 75.1974 29.3708C75.0784 29.962 74.8564 30.5278 74.5418 31.0423C73.8525 32.147 72.8178 32.9798 71.7729 33.7306C70.4612 34.6731 69.0638 35.564 68.0912 36.8825C67.9684 37.0489 68.2206 37.2497 68.3442 37.0821Z" fill="#3F3D56"/>
<path d="M80.5925 22.9327L82.0849 23.6007L82.807 23.9238C82.9353 23.9813 83.0647 24.0369 83.1921 24.0962C83.2704 24.1327 83.4244 24.189 83.3971 24.2981C83.3786 24.3724 83.2791 24.4322 83.2222 24.4742C83.1079 24.5587 82.9913 24.6404 82.8759 24.7235L82.2265 25.1908L80.8844 26.1568C80.8516 26.1827 80.8302 26.2203 80.8246 26.2617C80.819 26.3031 80.8297 26.3451 80.8545 26.3787C80.8792 26.4124 80.9161 26.4351 80.9573 26.4422C80.9985 26.4492 81.0408 26.4399 81.0753 26.4164C81.8544 25.8556 82.6402 25.3031 83.4131 24.7338C83.5575 24.6475 83.6654 24.5113 83.7163 24.351C83.7307 24.2581 83.7155 24.1631 83.673 24.0794C83.6304 23.9956 83.5626 23.9273 83.4791 23.8842C83.2806 23.7739 83.0746 23.6775 82.8626 23.5957L82.2127 23.3048L80.7204 22.6369C80.6815 22.6216 80.6381 22.622 80.5995 22.6381C80.5609 22.6542 80.5301 22.6846 80.5135 22.723C80.4969 22.7614 80.4959 22.8047 80.5106 22.8439C80.5254 22.883 80.5547 22.9148 80.5925 22.9327Z" fill="#3F3D56"/>
<path d="M93.9968 24.6399H86.582C86.5414 24.64 86.5011 24.6322 86.4636 24.6168C86.426 24.6014 86.3918 24.5788 86.363 24.5502C86.3342 24.5216 86.3113 24.4876 86.2956 24.4501C86.28 24.4126 86.2719 24.3725 86.2717 24.3319C86.2716 24.2913 86.2795 24.251 86.2949 24.2135C86.3104 24.1759 86.333 24.1418 86.3617 24.113C86.3903 24.0842 86.4243 24.0614 86.4618 24.0458C86.4993 24.0301 86.5395 24.0221 86.5801 24.022C86.5807 24.022 86.5813 24.022 86.582 24.022H93.9968C94.0374 24.0218 94.0776 24.0296 94.1152 24.045C94.1527 24.0604 94.1869 24.0831 94.2157 24.1117C94.2445 24.1403 94.2674 24.1743 94.2831 24.2118C94.2987 24.2492 94.3069 24.2894 94.307 24.33C94.3071 24.3706 94.2992 24.4108 94.2838 24.4484C94.2684 24.4859 94.2457 24.5201 94.217 24.5489C94.1884 24.5776 94.1544 24.6005 94.1169 24.6161C94.0794 24.6317 94.0392 24.6398 93.9986 24.6399C93.998 24.6399 93.9974 24.6399 93.9968 24.6399Z" fill="#6C63FF"/>
<path d="M74.0371 46.8366C75.6684 49.0482 78.4544 50.0018 80.1345 52.1713C80.5251 52.6646 80.8277 53.2215 81.0291 53.8176C81.1858 54.3465 81.3007 54.8869 81.3729 55.4338C81.5474 56.5366 81.7536 57.7113 82.7198 58.4104C83.9922 59.331 85.6547 59.1054 87.1082 58.8955C87.1497 58.8906 87.1915 58.902 87.2248 58.9273C87.2581 58.9527 87.2802 58.9899 87.2865 59.0313C87.2928 59.0726 87.2828 59.1148 87.2586 59.1489C87.2344 59.183 87.1979 59.2064 87.1568 59.2141C85.8212 59.4069 84.3924 59.5959 83.122 59.0125C82.5464 58.7584 82.0615 58.3358 81.7312 57.8004C81.4596 57.3154 81.2744 56.7869 81.1838 56.2385C81.0732 55.6773 81.0092 55.1077 80.8903 54.548C80.7712 53.9567 80.5493 53.391 80.2346 52.8765C79.5453 51.7718 78.5107 50.939 77.4658 50.1882C76.1541 49.2457 74.7567 48.3548 73.784 47.0363C73.6613 46.8699 73.9135 46.6691 74.0371 46.8366Z" fill="#3F3D56"/>
<path d="M86.2854 60.9861L87.7777 60.3182L88.4998 59.995C88.6282 59.9375 88.7575 59.882 88.8849 59.8226C88.9632 59.7862 89.1172 59.7298 89.09 59.6207C89.0714 59.5464 88.9719 59.4866 88.9151 59.4446C88.8007 59.3601 88.6841 59.2784 88.5687 59.1953L87.9193 58.728L86.5772 57.7621C86.5445 57.7362 86.523 57.6985 86.5174 57.6571C86.5119 57.6157 86.5226 57.5738 86.5473 57.5401C86.5721 57.5064 86.6089 57.4837 86.6501 57.4767C86.6913 57.4696 86.7336 57.4789 86.7681 57.5024C87.5472 58.0632 88.333 58.6157 89.1059 59.185C89.2504 59.2713 89.3582 59.4075 89.4091 59.5678C89.4235 59.6607 89.4084 59.7557 89.3658 59.8395C89.3233 59.9232 89.2554 59.9915 89.172 60.0346C88.9734 60.145 88.7674 60.2414 88.5554 60.3232L87.9056 60.614L86.4132 61.2819C86.3743 61.2972 86.331 61.2967 86.2924 61.2807C86.2538 61.2646 86.2229 61.2342 86.2063 61.1958C86.1898 61.1574 86.1887 61.1141 86.2035 61.075C86.2182 61.0359 86.2476 61.004 86.2854 60.9861Z" fill="#3F3D56"/>
<path d="M99.6896 60.1936H92.2749C92.193 60.1939 92.1143 60.1616 92.0562 60.104C91.9981 60.0463 91.9652 59.9679 91.9648 59.886C91.9645 59.8041 91.9966 59.7254 92.0543 59.6673C92.1119 59.6091 92.1902 59.5761 92.2721 59.5757C92.273 59.5757 92.2739 59.5757 92.2749 59.5757H99.6896C99.7715 59.5754 99.8502 59.6077 99.9083 59.6653C99.9664 59.723 99.9993 59.8014 99.9996 59.8833C100 59.9652 99.9678 60.0438 99.9102 60.102C99.8526 60.1602 99.7743 60.1931 99.6924 60.1936C99.6915 60.1936 99.6906 60.1936 99.6896 60.1936Z" fill="#6C63FF"/>
<path d="M15.1631 48.1845C15.0228 48.4626 14.8236 48.707 14.5795 48.9006C14.3354 49.0943 14.0521 49.2326 13.7493 49.306C13.4465 49.3794 13.1314 49.3861 12.8257 49.3257C12.52 49.2654 12.2311 49.1393 11.9789 48.9563L4.25644 52.6313L3.73889 50.4668L11.6034 45.8322C11.9431 45.4307 12.4182 45.1677 12.9388 45.093C13.4594 45.0184 13.9893 45.1373 14.4281 45.4273C14.8669 45.7172 15.184 46.158 15.3195 46.6662C15.455 47.1744 15.3993 47.7146 15.1631 48.1845Z" fill="#FFB6B6"/>
<path d="M12.1873 37.0218L6.75331 48.125L9.04981 47.0842L10.6481 46.3592L11.4494 49.4033C11.4494 49.4033 10.9188 49.9188 10.082 50.5966C8.88224 51.5698 7.05515 52.8791 5.26564 53.485C3.86498 53.9597 2.48902 54.0038 1.4557 53.1187C-0.505658 51.4387 1.41167 44.7673 3.26454 39.6877C4.50516 36.286 5.7157 33.5996 5.7157 33.5996C5.7157 30.012 12.6781 24.8533 13.9702 24.1476C14.7082 23.7459 14.9122 24.331 14.9122 24.331L10.8629 30.259L12.0735 35.1678L12.4161 36.5545L12.1873 37.0218Z" fill="#6C63FF"/>
</g>
<defs>
<clipPath id="clip0_7_7502">
<rect width="100" height="85.6441" fill="white"/>
</clipPath>
</defs>
</svg>
