<svg width="109" height="100" viewBox="0 0 109 100" fill="none" xmlns="http://www.w3.org/2000/svg">
<g clip-path="url(#clip0_7_7340)">
<path d="M99.3042 80.1158L90.4561 67.0681C90.4561 67.0681 103.856 71.7122 102.335 80.1158H99.3042Z" fill="#E5E5E5"/>
<path d="M7.58505 80.2024L7.24915 80.1959C7.37906 76.4882 7.77755 72.7945 8.44153 69.1436C9.89404 61.327 12.3093 56.1934 15.6203 53.8855L15.8132 54.1584C8.07873 59.5496 7.58898 79.9964 7.58505 80.2024Z" fill="#E5E5E5"/>
<path d="M11.7838 80.1226L11.4479 80.1161C11.4551 79.7468 11.665 71.0434 15.1164 68.6378L15.3093 68.9107C11.9972 71.2193 11.7854 80.0338 11.7838 80.1226Z" fill="#E5E5E5"/>
<path d="M17.7241 54.1887C18.6516 54.1887 19.4036 53.4422 19.4036 52.5213C19.4036 51.6005 18.6516 50.854 17.7241 50.854C16.7965 50.854 16.0446 51.6005 16.0446 52.5213C16.0446 53.4422 16.7965 54.1887 17.7241 54.1887Z" fill="#6C63FF"/>
<path d="M16.8924 68.5278C17.82 68.5278 18.5719 67.7813 18.5719 66.8605C18.5719 65.9396 17.82 65.1931 16.8924 65.1931C15.9648 65.1931 15.2129 65.9396 15.2129 66.8605C15.2129 67.7813 15.9648 68.5278 16.8924 68.5278Z" fill="#6C63FF"/>
<path d="M11.0009 55.1882C11.3166 57.1896 10.4939 58.9798 10.4939 58.9798C10.4939 58.9798 9.15949 57.5249 8.84385 55.5234C8.52821 53.522 9.35087 51.7318 9.35087 51.7318C9.35087 51.7318 10.6853 53.1867 11.0009 55.1882Z" fill="#E5E5E5"/>
<path d="M16.4908 60.0492C14.5606 60.7065 12.6416 60.2142 12.6416 60.2142C12.6416 60.2142 13.8522 58.6562 15.7824 57.9989C17.7127 57.3416 19.6317 57.8339 19.6317 57.8339C19.6317 57.8339 18.4211 59.3919 16.4908 60.0492Z" fill="#E5E5E5"/>
<path d="M16.5529 72.7477C15.6792 73.0201 14.7489 73.06 13.8549 72.8633C14.4225 72.1459 15.187 71.6066 16.0563 71.3106C16.9256 71.0146 17.8626 70.9744 18.7543 71.195C18.1701 71.895 17.411 72.4304 16.5529 72.7477Z" fill="#E5E5E5"/>
<path d="M108.832 80.4493H0.167951C0.123407 80.4493 0.0806909 80.4317 0.0491941 80.4005C0.0176972 80.3692 0 80.3268 0 80.2826C0 80.2384 0.0176972 80.1959 0.0491941 80.1647C0.0806909 80.1334 0.123407 80.1158 0.167951 80.1158H108.832C108.877 80.1158 108.919 80.1334 108.951 80.1647C108.982 80.1959 109 80.2384 109 80.2826C109 80.3268 108.982 80.3692 108.951 80.4005C108.919 80.4317 108.877 80.4493 108.832 80.4493Z" fill="#CBCBCB"/>
<path d="M68.8248 88.1358L67.4508 91.686L53.0031 88.1141L55.0309 82.8741L68.8248 88.1358Z" fill="#FFB7B7"/>
<path d="M72.6418 88.5523L68.2114 100L68.0655 99.9443C66.8752 99.4903 65.9153 98.5854 65.397 97.4288C64.8786 96.2722 64.8443 94.9585 65.3015 93.7768L65.3017 93.7765L68.0076 86.7847L72.6418 88.5523Z" fill="#2F2E41"/>
<path d="M46.8708 43.6829L40.5747 44.2681L40.2623 62.866C40.3458 63.7774 40.7855 64.6202 41.4872 65.2137C42.1889 65.8073 43.0968 66.1045 44.0166 66.0415L48.0085 65.7686L46.8708 43.6829Z" fill="#E5E5E5"/>
<path d="M69.0677 42.7674L64.7596 42.7124L64.5044 64.8106C65.4564 64.8421 66.4047 64.6785 67.2902 64.3301C68.1757 63.9817 68.9794 63.4559 69.6511 62.7854C70.3228 62.115 70.8482 61.3144 71.1945 60.4334C71.5407 59.5525 71.7004 58.6102 71.6636 57.6653L69.0677 42.7674Z" fill="#E5E5E5"/>
<path d="M44.0704 72.6611C43.9683 73.3021 43.8202 73.935 43.6272 74.555C43.4098 75.1618 43.0742 75.723 42.8754 76.3362C42.2419 78.2905 43.1202 80.4695 44.523 81.978C45.7395 83.281 47.3098 84.2067 49.0445 84.6434C50.31 84.9594 51.6259 85.0049 52.93 85.0488C56.5414 85.1704 60.2458 85.2791 63.6678 84.1269C64.7489 83.754 65.7932 83.283 66.7874 82.72C67.1013 82.5715 67.3778 82.3553 67.5969 82.0872C67.8579 81.7184 67.8912 81.2399 67.889 80.7892C67.8813 79.2693 67.5709 77.7572 67.6446 76.239C67.6854 75.3982 67.8439 74.5579 67.7659 73.7196C67.6579 72.7675 67.2562 71.8719 66.6157 71.1552C65.9752 70.4385 65.1272 69.9358 64.1879 69.716C63.2171 69.509 62.2103 69.6218 61.222 69.7162C58.6565 69.9609 56.0802 70.0752 53.503 70.0588C50.8698 70.0421 48.2528 69.6431 45.6327 69.6014C44.8579 69.5891 44.8735 69.8262 44.6269 70.5707C44.3997 71.2559 44.2138 71.9539 44.0704 72.6611Z" fill="#2F2E41"/>
<path d="M33.7735 71.4258C33.0654 71.2491 32.3358 71.1721 31.6062 71.1971C30.8395 71.2392 30.0907 71.4428 29.4094 71.7944C28.7281 72.146 28.1301 72.6376 27.655 73.2365C27.18 73.8353 26.8388 74.5277 26.6541 75.2676C26.4695 76.0075 26.4456 76.778 26.5841 77.5277C26.7609 78.3399 27.0499 79.1239 27.4429 79.8575C28.0177 81.0155 28.7071 82.1709 29.7712 82.913C30.3936 83.3471 31.114 83.6177 31.8259 83.884L37.4302 85.9799C38.2546 86.2882 39.0792 86.5966 39.9118 86.8825C44.0948 88.3179 48.4559 89.1786 52.8738 89.4407C54.2195 89.5203 55.5856 89.5424 56.8984 89.2383C57.2099 89.1661 57.5422 89.0585 57.7226 88.7962C57.8294 88.6114 57.8924 88.4049 57.9067 88.1923L58.2516 85.7956C58.3002 85.4581 58.3469 85.1029 58.2223 84.7852C58.0643 84.3824 57.6683 84.1291 57.2907 83.9138C53.6063 81.813 49.3043 80.6539 46.2031 77.7706C45.473 77.0918 44.862 76.0159 43.975 75.5548C42.9691 75.0319 41.7845 74.7335 40.7447 74.2517C38.4717 73.1984 36.237 71.988 33.7735 71.4258Z" fill="#2F2E41"/>
<path opacity="0.1" d="M39.3687 74.657C41.3495 75.2732 49.7128 79.5423 51.1463 81.0328C50.9542 81.1016 44.4349 77.4745 44.2392 77.4162C42.461 76.8864 40.673 76.3531 38.9843 75.5778C38.6446 75.4218 36.7773 74.6887 36.8619 74.2631C36.9573 73.783 39.017 74.5476 39.3687 74.657Z" fill="black"/>
<path d="M51.3235 37.432L45.9901 41.4522C45.9901 41.4522 40.3623 41.627 40.5524 45.1985C40.7426 48.7699 42.995 65.6796 42.995 65.6796L43.4837 71.4979L52.7534 74.12C57.7619 75.5368 63.0535 75.6494 68.1186 74.4469L67.017 68.6099C67.017 68.6099 71.4776 42.1006 68.7904 40.9334C66.1032 39.7663 64.4236 40.0998 64.4236 40.0998L61.0554 37.1819L51.3235 37.432Z" fill="#E5E5E5"/>
<path d="M67.1108 30.9383C67.1108 36.1572 62.2498 35.3679 56.2535 35.3679C50.2572 35.3679 45.3962 36.1572 45.3962 30.9383C45.3962 25.7193 47.7707 16.4684 56.2535 16.4684C65.0286 16.4684 67.1108 25.7193 67.1108 30.9383Z" fill="#2F2E41"/>
<path d="M61.8975 32.707C64.7506 29.8745 64.7506 25.2822 61.8975 22.4497C59.0443 19.6173 54.4185 19.6173 51.5654 22.4497C48.7122 25.2822 48.7122 29.8745 51.5654 32.707C54.4185 35.5395 59.0444 35.5395 61.8975 32.707Z" fill="#FFB7B7"/>
<path d="M47.776 27.3947H50.6656L51.9404 23.8511L52.1953 27.3947H53.5765L54.3201 25.3276L54.4689 27.3947H64.7312C64.7312 25.3584 63.9164 23.4055 62.466 21.9656C61.0156 20.5257 59.0484 19.7168 56.9973 19.7168H55.51C53.4588 19.7168 51.4916 20.5257 50.0412 21.9656C48.5908 23.4055 47.776 25.3584 47.776 27.3947Z" fill="#2F2E41"/>
<path d="M63.5839 38.2656H48.9722V55.7727H63.5839V38.2656Z" fill="#6C63FF"/>
<path d="M49.7773 87.969L51.1515 91.5193L65.5993 87.9473L63.5713 82.7074L49.7773 87.969Z" fill="#FFB7B7"/>
<path d="M50.5946 86.6179L53.3006 93.6097L53.3007 93.61C53.7579 94.7918 53.7236 96.1054 53.2053 97.2621C52.6869 98.4187 51.727 99.3235 50.5367 99.7776L50.3909 99.8332L45.9604 88.3856L50.5946 86.6179Z" fill="#2F2E41"/>
<path d="M78.6571 70.0668C79.8178 69.7779 81.021 69.6963 82.2104 69.8258C83.1604 69.9297 84.1391 70.1921 84.8327 70.8449C85.6769 71.6393 85.9481 72.868 85.9707 74.0226C86.0078 76.3222 85.2396 78.5632 83.7971 80.363C83.4449 80.8182 83.026 81.2185 82.5544 81.5506C82.0457 81.8665 81.5035 82.1259 80.9376 82.3241L68.387 87.2385C65.0853 88.5314 61.7718 89.8281 58.3279 90.6804C58.1406 90.7701 57.9252 90.7823 57.7288 90.7144C57.5325 90.6464 57.3715 90.5037 57.2811 90.3178C57.2783 90.3122 57.2756 90.3064 57.273 90.3007C56.1733 88.7414 55.2508 87.0661 54.5222 85.3053C54.4877 85.2635 54.4639 85.214 54.4527 85.1611C54.4416 85.1082 54.4434 85.0533 54.4581 85.0013C54.4728 84.9492 54.5 84.9014 54.5372 84.862C54.5744 84.8225 54.6207 84.7925 54.6721 84.7746L63.5492 79.711C64.1851 79.3483 64.8281 78.9804 65.356 78.4751C65.7397 78.106 66.0538 77.6718 66.2837 77.193C66.4677 76.8115 66.4848 75.9111 66.7199 75.6291C66.95 75.3529 67.7372 75.3309 68.1008 75.2223C68.6136 75.0664 69.1157 74.8779 69.6042 74.6581C71.5899 73.7762 73.3582 72.4948 75.2618 71.4622C76.3295 70.8562 77.4704 70.3873 78.6571 70.0668Z" fill="#2F2E41"/>
<path opacity="0.1" d="M73.6246 73.8483C72.0995 74.9855 70.1247 76.0308 68.6131 77.198C68.0973 77.5963 59.4975 82.3962 59.3759 83.0336C60.786 83.2695 69.7691 77.0307 71.0544 76.4082C72.3396 75.7856 73.479 74.9077 74.608 74.0363C74.8957 73.8142 76.115 73.1467 75.2891 72.8985C74.8238 72.7588 73.9681 73.621 73.6246 73.8483Z" fill="black"/>
<path d="M101.037 29.9646C103.935 29.9646 106.285 27.632 106.285 24.7545C106.285 21.8771 103.935 19.5444 101.037 19.5444C98.1385 19.5444 95.7888 21.8771 95.7888 24.7545C95.7888 27.632 98.1385 29.9646 101.037 29.9646Z" fill="#F1F1F1"/>
<path d="M91.324 30.8977C93.3572 30.8977 95.0055 29.2613 95.0055 27.2428C95.0055 25.2243 93.3572 23.588 91.324 23.588C89.2907 23.588 87.6425 25.2243 87.6425 27.2428C87.6425 29.2613 89.2907 30.8977 91.324 30.8977Z" fill="#F1F1F1"/>
<path d="M23.8848 28.5136C25.5151 28.5136 26.8367 27.2016 26.8367 25.5831C26.8367 23.9646 25.5151 22.6526 23.8848 22.6526C22.2545 22.6526 20.9329 23.9646 20.9329 25.5831C20.9329 27.2016 22.2545 28.5136 23.8848 28.5136Z" fill="#F1F1F1"/>
<path d="M28.7448 30.4841C29.8885 30.4841 30.8156 29.5638 30.8156 28.4284C30.8156 27.2931 29.8885 26.3727 28.7448 26.3727C27.6012 26.3727 26.6741 27.2931 26.6741 28.4284C26.6741 29.5638 27.6012 30.4841 28.7448 30.4841Z" fill="#F1F1F1"/>
<path d="M57.381 4.48022C58.6272 4.48022 59.6374 3.47729 59.6374 2.24011C59.6374 1.00293 58.6272 0 57.381 0C56.1348 0 55.1245 1.00293 55.1245 2.24011C55.1245 3.47729 56.1348 4.48022 57.381 4.48022Z" fill="#F1F1F1"/>
<path opacity="0.17" d="M43.9336 49.4369L44.1353 47.8912C44.1353 47.8912 51.6593 48.4365 50.4837 50.2706C49.308 52.1046 46.4529 52.2714 46.4529 52.2714L43.9336 49.4369Z" fill="#2F2E41"/>
<path d="M49.613 42.7163C50.044 42.7634 50.4592 42.9046 50.8287 43.1299C51.1982 43.3551 51.5129 43.6588 51.7502 44.019C51.9664 44.3478 52.1135 44.7165 52.1825 45.1031C52.2516 45.4897 52.2412 45.8862 52.1521 46.2687C52.063 46.6512 51.8969 47.0119 51.6638 47.3291C51.4307 47.6463 51.1354 47.9134 50.7957 48.1145C50.6712 48.1875 50.5412 48.251 50.4068 48.3043L45.7821 62.3478C45.6481 62.6249 45.4602 62.873 45.2293 63.0778C44.9984 63.2826 44.729 63.4401 44.4366 63.5411C44.1442 63.6422 43.8346 63.6849 43.5255 63.6668C43.2164 63.6487 42.9139 63.5701 42.6356 63.4355C42.3572 63.301 42.1083 63.1131 41.9033 62.8828C41.6983 62.6525 41.5411 62.3841 41.4409 62.0933C41.3407 61.8025 41.2994 61.4948 41.3193 61.1881C41.3393 60.8814 41.4201 60.5815 41.5572 60.3059L46.4754 46.4182C46.3415 45.9587 46.3236 45.4736 46.4235 45.0056C46.5235 44.5376 46.738 44.1013 47.0483 43.7353C47.3585 43.3693 47.7548 43.0848 48.2022 42.9071C48.6495 42.7293 49.1341 42.6638 49.613 42.7163Z" fill="#FFB7B7"/>
<path d="M44.0027 48.0228C44.0027 48.0228 46.6527 52.5175 50.4838 50.2704L46.7709 64.3759H43.6428L40.4067 63.7759L41.3128 57.9481L44.0027 48.0228Z" fill="#E5E5E5"/>
<path d="M62.924 51.095L60.7288 48.103C60.7288 48.103 61.7838 44.9996 65.8749 46.1345C65.8749 46.1345 68.4783 51.9195 62.924 51.095Z" fill="#E5E5E5"/>
<path opacity="0.17" d="M62.924 51.095L60.7288 48.103C60.7288 48.103 61.7838 44.9996 65.8749 46.1345C65.8749 46.1345 68.4783 51.9195 62.924 51.095Z" fill="#2F2E41"/>
<path d="M63.5052 40.6414C64.1385 40.9337 64.6451 41.442 64.9328 42.0737C65.2205 42.7055 65.2702 43.4188 65.0729 44.0839L69.9912 57.9716C70.1282 58.2472 70.2091 58.547 70.229 58.8538C70.249 59.1606 70.2077 59.4682 70.1075 59.7591C70.0073 60.0499 69.8501 60.3182 69.6451 60.5486C69.4401 60.779 69.1912 60.9668 68.9128 61.1014C68.6344 61.2359 68.332 61.3145 68.0229 61.3326C67.7138 61.3507 67.4041 61.308 67.1117 61.2069C66.8193 61.1058 66.5499 60.9484 66.319 60.7435C66.0881 60.5387 65.9002 60.2906 65.7662 60.0135L61.1415 45.9699C61.0072 45.9166 60.8771 45.8532 60.7526 45.7802C60.4129 45.5791 60.1176 45.3119 59.8845 44.9947C59.6515 44.6776 59.4854 44.3169 59.3962 43.9343C59.3071 43.5518 59.2967 43.1554 59.3658 42.7688C59.4349 42.3822 59.5819 42.0134 59.7981 41.6847C60.0354 41.3244 60.3501 41.0208 60.7196 40.7955C61.0891 40.5703 61.5043 40.4291 61.9353 40.382C62.4727 40.3215 63.0165 40.4114 63.5052 40.6414Z" fill="#FFB7B7"/>
<path d="M60.7288 48.1029C60.7288 48.1029 64.3507 50.2847 65.8749 46.1344L70.9788 59.4754L69.4622 62.1086L69.2429 62.1267C68.3381 62.2016 67.4286 62.0573 66.5924 61.7063C65.7562 61.3553 65.0184 60.808 64.4422 60.1115C63.267 58.6908 62.467 57.0018 62.1145 55.1971L60.7288 48.1029Z" fill="#E5E5E5"/>
</g>
<defs>
<clipPath id="clip0_7_7340">
<rect width="109" height="100" fill="white"/>
</clipPath>
</defs>
</svg>
