<svg width="80" height="107" viewBox="0 0 80 107" fill="none" xmlns="http://www.w3.org/2000/svg">
<g clip-path="url(#clip0_7_4629)">
<path d="M79.0487 0H42.1462V42.3577H79.0487V0Z" fill="#E6E6E6"/>
<path d="M34.971 38.4055C36.0119 37.3461 37.4023 37.0246 38.0763 37.6871C38.7504 38.3497 38.4529 39.7453 37.4114 40.8049C37.0012 41.2339 36.4942 41.5584 35.9329 41.7512L31.4656 46.184L29.4302 44.0433L34.0502 39.9007C34.2333 39.3359 34.549 38.8232 34.971 38.4055Z" fill="#FFB6B6"/>
<path d="M20.6842 34.7464L25.368 45.1371L32.8473 41.0886L35.524 42.5092C35.524 42.5092 29.4098 52.731 25.2235 51.5674C21.0371 50.4038 13.6032 39.8529 14.9426 36.5966C16.282 33.3403 20.6842 34.7464 20.6842 34.7464Z" fill="#E6E6E6"/>
<path d="M32.5285 50.7839H31.8867V52.7093H32.5285V50.7839Z" fill="#3F3D56"/>
<path d="M32.5285 47.0769H31.8867V43.3699H32.5285V47.0769ZM32.5285 39.6627H31.8867V35.9557H32.5285V39.6627ZM32.5285 32.2486H31.8867V28.5415H32.5285V32.2486ZM32.5285 24.8345H31.8867V21.1273H32.5285V24.8345ZM32.5285 17.4203H31.8867V13.7133H32.5285V17.4203Z" fill="#3F3D56"/>
<path d="M32.5285 10.0061H31.8867V7.75977H34.1329V8.40155H32.5285V10.0061Z" fill="#3F3D56"/>
<path d="M62.373 8.40167H58.843V7.75989H62.373L62.373 8.40167ZM55.313 8.40167H51.7831V7.75989H55.313V8.40167ZM48.253 8.40167H44.723V7.75989H48.253L48.253 8.40167ZM41.193 8.40167H37.6631V7.75989H41.193V8.40167Z" fill="#3F3D56"/>
<path d="M67.8283 7.75989H65.903V8.40167H67.8283V7.75989Z" fill="#3F3D56"/>
<path d="M56.2996 88.2221C56.1324 87.9402 55.4091 88.2421 55.2761 87.9862C55.1436 87.7313 55.8156 87.3429 56.1996 86.4556C56.2688 86.2955 56.7051 85.2872 56.3821 84.976C55.7699 84.3863 52.9683 86.8201 51.9879 86.0236C51.7727 85.8488 51.6224 85.4999 50.9712 84.9334C50.7121 84.708 50.5555 84.6062 50.4039 84.6441C50.1888 84.6978 50.1717 84.9857 49.941 85.5518C49.5951 86.4008 49.3905 86.3495 49.1889 87.0269C49.0393 87.5297 49.0735 87.822 48.8974 87.879C48.6483 87.9596 48.4189 87.4262 48.1032 87.474C47.7809 87.5227 47.5861 88.1437 47.5246 88.6086C47.4091 89.4811 47.7296 90.0569 47.9072 90.6622C48.1001 91.3201 48.2147 92.3206 47.769 93.737L43.3577 106.166C44.3316 103.616 47.1514 96.6243 48.3363 94.0263C48.6784 93.2763 49.0561 92.5156 49.8316 92.2153C50.5782 91.9263 51.6036 92.0988 52.9108 91.7839C53.0635 91.7471 53.4872 91.6393 53.5405 91.3902C53.5846 91.1841 53.3354 91.0691 53.3737 90.8762C53.425 90.6174 53.9151 90.6142 54.5173 90.3156C54.8572 90.1408 55.1667 89.9124 55.434 89.6393C55.5026 89.5744 56.5221 88.5974 56.2996 88.2221Z" fill="#F2F2F2"/>
<path d="M38.9442 94.7653C38.7576 94.766 38.6971 95.2081 38.5331 95.1995C38.3698 95.191 38.373 94.7491 38.0483 94.3046C37.9898 94.2245 37.6207 93.7194 37.3748 93.7882C36.9087 93.9185 37.2949 95.9957 36.6211 96.2471C36.3417 96.2928 36.0651 96.3544 35.7927 96.4315C35.6073 96.4937 35.5122 96.5412 35.487 96.6265C35.4513 96.7476 35.5877 96.839 35.799 97.1156C36.1158 97.5303 36.0316 97.616 36.3059 97.9103C36.5095 98.1289 36.6629 98.1964 36.64 98.2993C36.6077 98.4448 36.2797 98.4035 36.2121 98.5722C36.143 98.7445 36.3916 99.0192 36.602 99.1836C36.9969 99.492 37.372 99.5008 37.7203 99.5884C38.2959 99.7497 38.8084 100.083 39.1896 100.543L44.017 106.295C43.0462 105.081 40.4285 101.68 39.4953 100.348C39.2258 99.9641 38.9615 99.5592 39.0379 99.092C39.1114 98.6421 39.492 98.1886 39.7146 97.4562C39.7406 97.3706 39.8099 97.1316 39.703 97.0335C39.6146 96.9524 39.4863 97.0416 39.4026 96.9671C39.2904 96.8672 39.4302 96.6258 39.4574 96.244C39.4697 96.0268 39.4469 95.809 39.39 95.599C39.3779 95.5466 39.1926 94.7643 38.9442 94.7653Z" fill="#F2F2F2"/>
<path d="M42.6669 95.601L42.5544 94.5974L42.6058 94.5213C42.8248 94.2241 42.9502 93.8685 42.9661 93.4997C42.9663 93.4479 42.9639 93.396 42.9615 93.3432C42.9337 93.0801 42.9729 92.8142 43.0754 92.5703C43.1515 92.4012 43.3652 92.0096 43.6865 92.0581C43.7623 92.0688 43.8329 92.1033 43.888 92.1564C43.8953 92.1448 43.9028 92.1332 43.9108 92.1206C43.9791 92.0128 44.0656 91.9177 44.1664 91.8395C44.2461 91.776 44.318 91.7033 44.3806 91.6229C44.4223 91.5711 44.4548 91.5255 44.4822 91.4872C44.5193 91.4162 44.574 91.3558 44.6411 91.3118C44.7081 91.2678 44.7852 91.2416 44.8652 91.2357C44.9482 91.2484 45.0267 91.2817 45.0935 91.3325C45.1603 91.3832 45.2134 91.4499 45.2478 91.5265C45.3366 91.6649 45.411 91.812 45.47 91.9655C45.4807 91.995 45.4933 92.0238 45.5075 92.0518C45.5735 92.1487 46.1092 92.0581 46.311 92.0251C46.7643 91.9495 47.1566 91.8841 47.3182 92.17C47.4341 92.3745 47.348 92.6449 47.0549 92.9953C46.9734 93.0912 46.8812 93.1773 46.7801 93.2521C46.8199 93.2744 46.8547 93.3047 46.8825 93.3409C46.9102 93.3771 46.9303 93.4187 46.9415 93.4629C47.0025 93.7062 46.7934 93.9499 46.3202 94.1884C46.1649 94.2735 45.9969 94.3333 45.8228 94.3657C45.7305 94.3806 45.6373 94.3889 45.5439 94.3904C45.5422 94.4426 45.5281 94.4935 45.5029 94.5392C45.4475 94.6216 45.3686 94.6854 45.2764 94.7225C45.1843 94.7595 45.0832 94.7681 44.9861 94.7471C44.7392 94.7303 44.4944 94.6908 44.2546 94.6293C44.1044 94.5862 43.9491 94.563 43.7928 94.5605C43.5646 94.5789 43.3887 94.7616 43.1822 94.9986L42.6669 95.601Z" fill="#F2F2F2"/>
<path d="M43.1884 89.6255L42.2461 89.9888L42.1595 89.9584C41.8165 89.822 41.4407 89.7909 41.08 89.869C41.0297 89.882 40.9802 89.8974 40.9297 89.9132C40.6823 90.0068 40.4151 90.0364 40.1532 89.9991C39.9703 89.9684 39.5373 89.861 39.5027 89.5379C39.4939 89.4618 39.5093 89.3848 39.5467 89.318C39.5337 89.3139 39.5205 89.3096 39.5063 89.305C39.3847 89.2663 39.2708 89.2067 39.1696 89.1291C39.0879 89.0681 38.9994 89.017 38.9057 88.9768C38.845 88.9497 38.7927 88.9298 38.7487 88.913C38.6706 88.8951 38.5983 88.8575 38.5387 88.8038C38.4791 88.7502 38.4342 88.6822 38.4083 88.6063C38.3995 88.5228 38.4118 88.4385 38.4439 88.361C38.4761 88.2834 38.5272 88.2152 38.5925 88.1625C38.7038 88.0415 38.8273 87.9321 38.9608 87.8362C38.9866 87.8183 39.0113 87.7989 39.0347 87.778C39.1117 87.6896 38.8882 87.1944 38.8051 87.0075C38.617 86.5882 38.4542 86.2253 38.6898 85.9965C38.8582 85.8326 39.1416 85.8472 39.5549 86.0419C39.6683 86.0964 39.775 86.1637 39.873 86.2426C39.8845 86.1984 39.9049 86.157 39.9329 86.121C39.9609 86.085 39.996 86.055 40.036 86.033C40.2558 85.9122 40.5446 86.0527 40.8953 86.4499C41.017 86.5786 41.1175 86.7259 41.193 86.8861C41.2308 86.9716 41.2625 87.0596 41.2877 87.1496C41.3385 87.138 41.3914 87.1387 41.442 87.1515C41.6107 87.1932 41.7249 87.3421 41.7742 87.5987C41.8205 87.8418 41.8445 88.0886 41.8458 88.3361C41.8421 88.4924 41.8591 88.6485 41.8964 88.8003C41.9721 89.0164 42.1934 89.1402 42.475 89.2798L43.1884 89.6255Z" fill="#F2F2F2"/>
<path d="M42.6669 86.6688L42.5544 85.6652L42.6058 85.5891C42.8248 85.292 42.9502 84.9364 42.9661 84.5676C42.9663 84.5158 42.9639 84.4639 42.9615 84.4111C42.9337 84.148 42.9729 83.8821 43.0754 83.6382C43.1515 83.469 43.3652 83.0775 43.6865 83.1259C43.7623 83.1367 43.8329 83.1711 43.888 83.2243C43.8953 83.2127 43.9028 83.2011 43.9108 83.1885C43.9791 83.0807 44.0656 82.9856 44.1664 82.9074C44.2461 82.8439 44.318 82.7712 44.3806 82.6908C44.4223 82.6389 44.4548 82.5934 44.4822 82.5551C44.5193 82.484 44.574 82.4237 44.6411 82.3796C44.7081 82.3356 44.7852 82.3095 44.8652 82.3036C44.9482 82.3163 45.0267 82.3495 45.0935 82.4003C45.1603 82.4511 45.2134 82.5178 45.2478 82.5943C45.3366 82.7328 45.411 82.8799 45.47 83.0334C45.4807 83.0629 45.4933 83.0917 45.5075 83.1196C45.5735 83.2166 46.1092 83.1259 46.311 83.093C46.7643 83.0174 47.1566 82.952 47.3182 83.2379C47.4341 83.4424 47.348 83.7128 47.0549 84.0632C46.9734 84.159 46.8812 84.2452 46.7801 84.32C46.8199 84.3423 46.8547 84.3725 46.8825 84.4088C46.9102 84.445 46.9303 84.4865 46.9415 84.5308C47.0025 84.774 46.7934 85.0178 46.3202 85.2562C46.1649 85.3413 45.9969 85.4012 45.8228 85.4336C45.7305 85.4485 45.6373 85.4567 45.5439 85.4583C45.5422 85.5104 45.5281 85.5614 45.5029 85.6071C45.4475 85.6894 45.3686 85.7533 45.2764 85.7903C45.1843 85.8274 45.0832 85.836 44.9861 85.815C44.7392 85.7981 44.4944 85.7587 44.2546 85.6972C44.1044 85.654 43.9491 85.6309 43.7928 85.6284C43.5646 85.6468 43.3887 85.8295 43.1822 86.0665L42.6669 86.6688Z" fill="#F2F2F2"/>
<path d="M43.6937 106.15L43.4834 106.018L43.2382 106.046C43.2343 106.023 43.221 105.971 43.2009 105.889C42.8839 104.582 42.6424 103.258 42.4774 101.924C42.2811 100.402 42.1716 98.8702 42.1495 97.3358C42.1268 95.79 42.1999 94.6197 42.2586 93.6791C42.3029 92.9696 42.3567 92.2941 42.4095 91.636C42.55 89.8779 42.6826 88.2172 42.584 86.3786C42.567 85.6197 42.3729 84.8753 42.0172 84.2047C41.7187 83.6668 41.3156 83.1939 40.8317 82.8139L41.1408 82.4253C41.6762 82.8466 42.1221 83.3705 42.4524 83.9663C42.8451 84.7017 43.0599 85.519 43.0797 86.3524C43.18 88.2235 43.046 89.9002 42.904 91.6752C42.8517 92.3309 42.7979 93.0035 42.7538 93.7101C42.6957 94.6419 42.6232 95.8021 42.6458 97.328C42.6675 98.8436 42.7755 100.357 42.9692 101.86C43.1319 103.176 43.3702 104.482 43.683 105.771C43.7407 106.007 43.7528 106.056 43.6937 106.15Z" fill="#F2F2F2"/>
<path d="M39.9216 83.6024C39.9012 83.6024 39.8806 83.6019 39.8598 83.6004C39.4372 83.5776 39.0459 83.3247 38.6965 82.8488C38.5328 82.6249 38.4489 82.3695 38.2817 81.8602C38.1767 81.5257 38.1003 81.1828 38.0532 80.8353C38.0031 80.4772 38.0094 80.3275 38.0804 80.1952C38.1598 80.0541 38.2823 79.9421 38.43 79.8758C38.4233 79.8262 38.43 79.7756 38.4494 79.7295C38.534 79.5225 38.7588 79.5497 38.8804 79.5628C38.9536 79.574 39.0277 79.5785 39.1017 79.5763C39.2111 79.5695 39.3169 79.5339 39.4082 79.4731C39.5368 79.3965 39.6769 79.3414 39.8232 79.3098C40.0843 79.26 40.354 79.2814 40.6039 79.3718C41.1406 79.5506 41.4052 79.9679 41.7114 80.451C41.8892 80.7423 42.0268 81.0562 42.1204 81.3843C42.1977 81.5813 42.217 81.7961 42.1762 82.0037C42.1151 82.2406 41.9709 82.3763 41.6048 82.6758C41.372 82.8815 41.1251 83.0706 40.8658 83.2418C40.4823 83.4633 40.2414 83.6024 39.9216 83.6024Z" fill="#F2F2F2"/>
<path d="M80 105.941H0V106.337H80V105.941Z" fill="#3F3D56"/>
<path d="M18.6306 103.996L22.0458 103.996L23.6704 90.8228L18.6298 90.823L18.6306 103.996Z" fill="#FFB6B6"/>
<path d="M30.3314 103.919C30.4378 104.098 30.4939 104.676 30.4939 104.884C30.4939 105.036 30.4639 105.187 30.4056 105.328C30.3474 105.468 30.262 105.596 30.1544 105.704C30.0467 105.811 29.9189 105.897 29.7783 105.955C29.6377 106.013 29.4869 106.043 29.3347 106.043H18.7581C18.6543 106.043 18.5515 106.023 18.4555 105.983C18.3596 105.943 18.2724 105.885 18.199 105.812C18.1256 105.738 18.0673 105.651 18.0276 105.555C17.9878 105.459 17.9674 105.356 17.9674 105.253V104.812C17.9674 104.812 17.4442 103.489 18.5214 101.858C18.5214 101.858 19.8602 103.135 21.8607 101.134L22.4507 100.066L26.721 103.189L29.088 103.48C29.6059 103.544 30.065 103.47 30.3314 103.919Z" fill="#2F2E41"/>
<path d="M21.2149 35.4132L21.2838 30.8069L18.4432 29.036L15.3545 32.8144L21.2149 35.4132Z" fill="#FFB6B6"/>
<path opacity="0.1" d="M21.2148 35.4132L21.3986 30.9216L18.4431 29.036L19.4473 34.5946L21.2148 35.4132Z" fill="black"/>
<path d="M21.2236 32.2403C24.0137 32.2403 26.2755 29.9784 26.2755 27.1884C26.2755 24.3983 24.0137 22.1365 21.2236 22.1365C18.4336 22.1365 16.1718 24.3983 16.1718 27.1884C16.1718 29.9784 18.4336 32.2403 21.2236 32.2403Z" fill="#FFB6B6"/>
<path d="M28.1134 65.8728L23.4073 97.8969H17.5029L18.2881 79.6168L18.7013 70.0049L17.5029 65.4297C17.1224 64.7007 16.7863 63.9494 16.4963 63.18C15.9775 61.7888 15.5677 60.121 16.1761 59.3302C16.3999 59.0386 16.9818 58.8228 17.7727 58.6622C18.3193 58.5559 18.871 58.4774 19.4256 58.4269C22.9172 58.0814 27.8838 58.2972 27.8838 58.2972L28.0101 62.4637L28.0801 64.7904L28.1134 65.8728Z" fill="#2F2E41"/>
<path d="M12.6145 102.43L15.9933 102.927L19.5169 90.1297L14.5299 89.3969L12.6145 102.43Z" fill="#FFB6B6"/>
<path d="M24.2022 104.055C24.2813 104.248 24.2528 104.828 24.2225 105.034C24.2003 105.185 24.1488 105.329 24.0707 105.46C23.9926 105.591 23.8895 105.705 23.7674 105.796C23.6452 105.887 23.5064 105.952 23.3588 105.99C23.2111 106.027 23.0577 106.034 22.9071 106.012L12.443 104.474C12.2355 104.443 12.0486 104.332 11.9234 104.163C11.7983 103.995 11.7451 103.784 11.7756 103.577L11.8397 103.141C11.8397 103.141 11.5145 101.755 12.8175 100.298C12.8175 100.298 13.9563 101.757 16.2266 100.068L16.9657 99.0968L20.7364 102.808L23.0358 103.44C23.5389 103.579 24.0039 103.573 24.2022 104.055Z" fill="#2F2E41"/>
<path d="M28.1875 60.5319L27.542 66.0908L24.0219 77.8048L18.2272 97.0902L12.3862 96.2318L17.6284 68.8109L17.1093 64.109C17.1093 64.109 16.9403 63.6416 16.7465 62.9574C16.3619 61.6037 15.8795 59.3992 16.4102 58.2748C16.4764 58.1282 16.5689 57.9951 16.6831 57.8819C16.8919 57.6795 17.3161 57.5565 17.8845 57.4913C20.2603 57.2228 25.1531 57.9908 27.3303 58.3678L28.1875 60.5319Z" fill="#2F2E41"/>
<path d="M16.0038 31.8399L21.7429 34.5946C21.7429 34.5946 27.8264 52.6154 27.8264 53.5336C27.8264 54.4519 29.5481 55.0258 28.5151 56.0588C27.482 57.0919 30.4378 57.9668 28.8452 58.7919C27.2525 59.6171 17.3171 64.1306 16.2123 63.7236C13.1653 62.601 16.3414 58.476 16.3414 58.476C16.3414 58.476 14.0525 56.6327 14.3969 55.7145C14.7412 54.7962 12.3308 37.2346 12.3308 37.2346L16.0038 31.8399Z" fill="#E6E6E6"/>
<path d="M20.9151 28.3984L21.5649 29.6979C21.5649 29.6979 22.2147 27.3587 23.2543 26.8389C24.294 26.3191 24.4239 25.5393 24.4239 25.5393C24.4239 25.5393 25.7235 27.2288 26.6331 26.8389C27.5428 26.449 27.9327 26.1891 26.8931 24.6296C25.8534 23.0702 26.1133 23.8499 26.1133 23.8499C26.1133 23.8499 25.2036 22.5504 25.3336 22.9402C25.4635 23.3301 24.5539 21.9006 24.5539 22.2905C24.5539 22.6803 23.9041 21.5107 23.9041 21.9006C23.9041 22.2905 21.175 20.9909 21.5649 21.5107C21.9547 22.0305 19.2257 20.4711 17.9261 22.5504C16.6266 24.6297 14.8246 24.2451 15.4657 25.542C16.1068 26.8389 15.8468 30.3477 15.8468 30.3477H17.6391C17.6391 30.3477 19.4856 26.8389 20.9151 28.3984Z" fill="#2F2E41"/>
<path d="M68.6193 50.1751L68.5639 50.1929L65.5461 51.1256L31.0886 61.7831C34.7381 59.1533 35.5124 43.5454 34.5936 36.4504C39.8985 46.09 48.5579 40.2345 59.1441 23.4405C61.9144 19.0444 64.8193 13.8959 67.8272 8.08008L68.3639 36.6167L68.6193 50.1751Z" fill="#6C63FF"/>
<path d="M33.4914 47.7189C34.9157 47.2981 36.2874 47.692 36.555 48.5985C36.8227 49.5049 35.885 50.5806 34.4602 51.0014C33.8933 51.1773 33.2925 51.2148 32.7081 51.111L26.6507 52.8177L25.9104 49.958L31.9606 48.5791C32.3948 48.1742 32.9198 47.8793 33.4914 47.7189Z" fill="#FFB6B6"/>
<path d="M22.7774 37.5844L21.828 48.9423L30.3322 49.0338L31.9827 51.5752C31.9827 51.5752 21.6751 57.5435 18.58 54.4939C15.4849 51.4443 14.1078 38.6113 16.8596 36.4146C19.6114 34.218 22.7774 37.5844 22.7774 37.5844Z" fill="#E6E6E6"/>
<path d="M42.6645 33.21L40.6223 32.5798C41.564 33.5611 42.4858 35.1728 43.0434 36.4807C43.4734 35.1257 44.2374 33.4335 45.0813 32.3668L43.1357 33.1776C43.5019 26.8965 47.5538 21.8416 52.9163 21.0692L52.9605 20.8379C47.3592 21.6446 43.0214 26.6788 42.6645 33.21Z" fill="#3F3D56"/>
<path d="M45.2362 50.9425L46.3255 49.1438C45.1639 49.8083 43.4054 50.3033 42.0239 50.5232C43.2146 51.2572 44.6473 52.3906 45.4639 53.4508L45.1546 51.4001C51.0625 53.2496 54.9198 58.3244 54.3764 63.6274L54.5866 63.7248C55.1543 58.1857 51.3851 52.843 45.2362 50.9425Z" fill="#3F3D56"/>
<path d="M68.5638 50.1929L65.546 51.1256C63.043 49.6286 60.4213 48.4108 57.8153 47.2207C56.9203 46.8127 55.9044 46.2444 55.6648 45.0722C55.5203 44.3731 55.7044 43.6306 55.9539 42.9811C57.346 39.3454 60.7005 37.2781 61.7242 33.4464C62.6648 29.9217 61.2648 26.1276 59.144 23.4405C61.9143 19.0444 64.8193 13.8959 67.8272 8.08008L68.3638 36.6167C68.443 42.0425 68.5163 46.9474 68.5638 50.1929Z" fill="#F1F2F2"/>
</g>
<defs>
<clipPath id="clip0_7_4629">
<rect width="80" height="106.337" fill="white"/>
</clipPath>
</defs>
</svg>
