<svg width="100" height="89" viewBox="0 0 100 89" fill="none" xmlns="http://www.w3.org/2000/svg">
<g clip-path="url(#clip0_6_4490)">
<path d="M92.4403 68.0876L96.9263 68.7548C98.4449 67.0052 99.4916 64.9294 99.9758 62.7075C96.6955 65.2626 91.7071 63.9048 87.7295 65.2998C86.4924 65.7439 85.3762 66.4473 84.4636 67.3577C83.551 68.2681 82.8654 69.3622 82.4576 70.5591L80.2653 72.8036C82.2498 73.5512 84.3811 73.8806 86.5123 73.7689C88.6435 73.6573 90.7239 73.1073 92.6102 72.1569C93.6629 71.6137 94.6395 70.9466 95.517 70.1712C93.9473 69.2307 92.4403 68.0876 92.4403 68.0876Z" fill="#F2F2F2"/>
<path d="M90.8478 61.2604L95.1757 59.9536C95.7149 57.7433 95.6789 55.4411 95.0709 53.2469C93.3324 56.926 88.2312 57.8277 85.3248 60.7643C84.4257 61.6868 83.7563 62.79 83.3662 63.9922C82.9761 65.1943 82.8753 66.4646 83.0712 67.7089L82.1609 70.6482C84.2875 70.4752 86.3495 69.8654 88.2047 68.8611C90.0599 67.8567 91.6642 66.4815 92.9071 64.8303C93.5947 63.8975 94.1561 62.8859 94.5781 61.8195C92.7324 61.6438 90.8478 61.2604 90.8478 61.2604Z" fill="#F2F2F2"/>
<path d="M100 74.1632C100 74.1852 99.9956 74.207 99.9867 74.2274C99.9779 74.2478 99.9649 74.2663 99.9486 74.2819C99.9322 74.2974 99.9128 74.3098 99.8913 74.3182C99.8699 74.3266 99.847 74.3309 99.8239 74.3308H0.176122C0.129412 74.3308 0.0846137 74.3131 0.0515845 74.2817C0.0185554 74.2503 0 74.2076 0 74.1632C0 74.1188 0.0185554 74.0761 0.0515845 74.0447C0.0846137 74.0133 0.129412 73.9956 0.176122 73.9956H99.8239C99.847 73.9955 99.8699 73.9998 99.8913 74.0082C99.9128 74.0166 99.9322 74.029 99.9486 74.0445C99.9649 74.0601 99.9779 74.0786 99.9867 74.099C99.9956 74.1194 100 74.1412 100 74.1632Z" fill="#CCCCCC"/>
<path d="M41.2921 67.0184C58.8659 67.0184 73.1123 53.4618 73.1123 36.739C73.1123 20.0161 58.8659 6.45953 41.2921 6.45953C23.7182 6.45953 9.4718 20.0161 9.4718 36.739C9.4718 53.4618 23.7182 67.0184 41.2921 67.0184Z" fill="#E6E6E6"/>
<path d="M68.6722 36.739C68.6754 40.8044 67.6774 44.814 65.7582 48.4462C63.8391 52.0784 61.0521 55.2321 57.6209 57.6543C57.3915 57.8177 57.1577 57.9768 56.9224 58.1317C52.3341 61.1667 46.8799 62.7934 41.292 62.7934C35.704 62.7934 30.2499 61.1667 25.6616 58.1317C25.4262 57.9768 25.1924 57.8177 24.963 57.6543C21.5342 55.2299 18.749 52.0758 16.8301 48.4441C14.9111 44.8124 13.9117 40.8039 13.9117 36.739C13.9117 32.6741 14.9111 28.6655 16.8301 25.0338C18.749 21.4021 21.5342 18.248 24.963 15.8236C25.1924 15.6603 25.4262 15.5011 25.6616 15.3462C30.2499 12.3112 35.704 10.6846 41.292 10.6846C46.8799 10.6846 52.3341 12.3112 56.9224 15.3462C57.1577 15.5011 57.3915 15.6603 57.6209 15.8236C61.0521 18.2459 63.8391 21.3996 65.7582 25.0318C67.6774 28.6639 68.6754 32.6735 68.6722 36.739Z" fill="white"/>
<path d="M41.292 60.54C55.1059 60.54 66.3042 49.8839 66.3042 36.739C66.3042 23.594 55.1059 12.9379 41.292 12.9379C27.4781 12.9379 16.2798 23.594 16.2798 36.739C16.2798 49.8839 27.4781 60.54 41.292 60.54Z" fill="#6C63FF"/>
<path opacity="0.2" d="M41.3572 13.0045C40.978 13.0045 40.6012 13.0139 40.2262 13.0298C46.5479 13.5584 52.422 16.3539 56.6586 20.8499C60.8951 25.346 63.1772 31.2064 63.0426 37.2438C62.9079 43.2812 60.3665 49.0441 55.9333 53.3651C51.5001 57.686 45.5066 60.2418 39.167 60.5147C39.8889 60.5743 40.6191 60.6066 41.3572 60.6066C47.9909 60.6066 54.3528 58.0989 59.0435 53.6354C63.7342 49.1718 66.3694 43.1179 66.3694 36.8055C66.3694 30.4931 63.7342 24.4392 59.0435 19.9756C54.3528 15.5121 47.9909 13.0045 41.3572 13.0045Z" fill="black"/>
<path d="M41.366 11.2479C41.1502 11.2482 40.9434 11.3299 40.7908 11.4751C40.6383 11.6203 40.5524 11.8171 40.552 12.0225V15.4025C40.552 15.6079 40.6378 15.8049 40.7904 15.9502C40.9431 16.0955 41.1501 16.1771 41.366 16.1771C41.5819 16.1771 41.7889 16.0955 41.9416 15.9502C42.0943 15.8049 42.18 15.6079 42.18 15.4025V12.0225C42.1796 11.8171 42.0937 11.6203 41.9412 11.4751C41.7886 11.3299 41.5818 11.2482 41.366 11.2479Z" fill="white"/>
<path d="M57.6209 15.8236C57.3915 15.6602 57.1577 15.5011 56.9224 15.3462C56.7812 15.3374 56.64 15.3639 56.5128 15.4229C56.3857 15.4819 56.2769 15.5715 56.1972 15.6828L54.1977 18.4755C54.0762 18.6453 54.0305 18.854 54.0708 19.0558C54.111 19.2576 54.2339 19.4359 54.4123 19.5515C54.5907 19.6671 54.81 19.7105 55.0221 19.6722C55.2341 19.6339 55.4215 19.5171 55.543 19.3473L57.5425 16.5545C57.6186 16.4486 57.6656 16.3262 57.6793 16.1986C57.693 16.0709 57.6729 15.942 57.6209 15.8236Z" fill="white"/>
<path d="M66.7053 28.5579C66.6651 28.4637 66.6058 28.378 66.5307 28.3057C66.4557 28.2333 66.3665 28.1757 66.2681 28.1362C66.1696 28.0968 66.064 28.0761 65.9572 28.0755C65.8504 28.0748 65.7445 28.0942 65.6456 28.1325L62.354 29.4043C62.1542 29.4817 61.9949 29.6315 61.9111 29.8206C61.8273 30.0098 61.8258 30.2229 61.907 30.4131C61.9882 30.6033 62.1455 30.755 62.3442 30.8349C62.5429 30.9149 62.7668 30.9165 62.9668 30.8394L66.2583 29.5676C66.458 29.4898 66.6172 29.3398 66.7009 29.1506C66.7847 28.9613 66.7863 28.7482 66.7053 28.5579Z" fill="white"/>
<path d="M28.3863 18.4755L26.3868 15.6828C26.3072 15.5715 26.1984 15.4819 26.0712 15.4229C25.944 15.3639 25.8028 15.3374 25.6616 15.3462C25.4263 15.5011 25.1925 15.6602 24.9631 15.8236C24.9111 15.942 24.891 16.0709 24.9047 16.1986C24.9184 16.3262 24.9654 16.4486 25.0415 16.5545L27.041 19.3473C27.1625 19.5171 27.3499 19.6339 27.5619 19.6722C27.774 19.7105 27.9933 19.6671 28.1717 19.5515C28.3501 19.4359 28.473 19.2576 28.5132 19.0558C28.5535 18.854 28.5078 18.6453 28.3863 18.4755Z" fill="white"/>
<path d="M20.2299 29.4043L16.9384 28.1326C16.7384 28.0553 16.5144 28.0568 16.3155 28.1367C16.1167 28.2166 15.9593 28.3684 15.8781 28.5587C15.7969 28.7489 15.7984 28.9621 15.8823 29.1514C15.9662 29.3406 16.1257 29.4903 16.3257 29.5677L19.6172 30.8394C19.8171 30.9165 20.0411 30.9149 20.2398 30.835C20.4385 30.7551 20.5957 30.6033 20.6769 30.4131C20.7581 30.2229 20.7567 30.0098 20.6729 29.8207C20.589 29.6315 20.4297 29.4818 20.2299 29.4043Z" fill="white"/>
<path d="M41.366 57.3008C41.1502 57.3011 40.9434 57.3829 40.7908 57.528C40.6383 57.6732 40.5524 57.87 40.552 58.0754V61.4554C40.552 61.6608 40.6378 61.8579 40.7904 62.0031C40.9431 62.1484 41.1501 62.23 41.366 62.23C41.5819 62.23 41.7889 62.1484 41.9416 62.0031C42.0943 61.8579 42.18 61.6608 42.18 61.4554V58.0754C42.1796 57.87 42.0937 57.6732 41.9412 57.528C41.7886 57.3829 41.5818 57.3011 41.366 57.3008Z" fill="white"/>
<path d="M57.5425 56.9234L55.543 54.1306C55.4829 54.0466 55.4059 53.9746 55.3165 53.9189C55.2271 53.8631 55.1271 53.8247 55.0221 53.8057C54.9171 53.7867 54.8092 53.7876 54.7046 53.8084C54.5999 53.8291 54.5006 53.8692 54.4123 53.9264C54.3239 53.9837 54.2483 54.0569 54.1897 54.142C54.1311 54.227 54.0907 54.3222 54.0708 54.4221C54.0509 54.522 54.0518 54.6247 54.0736 54.7243C54.0954 54.8238 54.1375 54.9184 54.1977 55.0024L56.1972 57.7952C56.2768 57.9064 56.3856 57.996 56.5128 58.055C56.64 58.1141 56.7812 58.1405 56.9224 58.1318C57.1577 57.9768 57.3915 57.8177 57.6209 57.6543C57.6729 57.5359 57.693 57.407 57.6793 57.2794C57.6656 57.1517 57.6186 57.0293 57.5425 56.9234Z" fill="white"/>
<path d="M66.2584 43.9102L62.9668 42.6385C62.7668 42.5612 62.5428 42.5627 62.344 42.6426C62.1451 42.7225 61.9878 42.8742 61.9065 43.0645C61.8253 43.2548 61.8268 43.468 61.9107 43.6572C61.9947 43.8465 62.1542 43.9962 62.3541 44.0735L65.6456 45.3453C65.8456 45.4224 66.0695 45.4208 66.2682 45.3409C66.4669 45.2609 66.6242 45.1092 66.7054 44.919C66.7866 44.7288 66.7851 44.5157 66.7013 44.3265C66.6175 44.1374 66.4582 43.9876 66.2584 43.9102Z" fill="white"/>
<path d="M28.1717 53.9264C27.9933 53.8108 27.774 53.7674 27.5619 53.8057C27.3499 53.844 27.1625 53.9609 27.041 54.1306L25.0415 56.9233C24.9654 57.0293 24.9184 57.1516 24.9047 57.2793C24.891 57.407 24.9111 57.5359 24.9631 57.6543C25.1925 57.8176 25.4263 57.9768 25.6616 58.1317C25.8028 58.1404 25.944 58.114 26.0712 58.055C26.1984 57.9959 26.3072 57.9064 26.3868 57.7951L28.3863 55.0023C28.4465 54.9183 28.4887 54.8238 28.5104 54.7242C28.5322 54.6246 28.5332 54.522 28.5132 54.4221C28.4933 54.3221 28.4529 54.2269 28.3943 54.1419C28.3357 54.0568 28.2601 53.9836 28.1717 53.9264Z" fill="white"/>
<path d="M20.677 43.0638C20.6368 42.9697 20.5774 42.884 20.5024 42.8116C20.4274 42.7393 20.3381 42.6817 20.2397 42.6422C20.1413 42.6027 20.0357 42.5821 19.9289 42.5814C19.8221 42.5808 19.7162 42.6002 19.6173 42.6385L16.3257 43.9102C16.1259 43.9877 15.9666 44.1375 15.8828 44.3266C15.799 44.5158 15.7975 44.7289 15.8787 44.9191C15.9599 45.1093 16.1171 45.261 16.3159 45.3409C16.5146 45.4209 16.7385 45.4225 16.9384 45.3454L20.23 44.0736C20.4297 43.9958 20.5889 43.8458 20.6726 43.6566C20.7564 43.4673 20.758 43.2542 20.677 43.0638Z" fill="white"/>
<path d="M42.4222 36.3546C42.4974 36.778 42.393 37.2124 42.1319 37.5627C41.8709 37.9129 41.4745 38.1503 41.0297 38.2228L26.5851 40.5609C26.3647 40.5965 26.1392 40.5905 25.9212 40.5433C25.7033 40.496 25.4973 40.4083 25.315 40.2853C25.1327 40.1622 24.9777 40.0062 24.8587 39.8261C24.7398 39.6461 24.6592 39.4455 24.6218 39.2358C24.5843 39.0261 24.5906 38.8115 24.6403 38.6041C24.69 38.3967 24.7821 38.2007 24.9114 38.0272C25.0407 37.8537 25.2046 37.7062 25.3939 37.593C25.5831 37.4798 25.7939 37.4032 26.0143 37.3675L40.4589 35.0295C40.9038 34.958 41.3604 35.0573 41.7285 35.3057C42.0966 35.5541 42.3461 35.9313 42.4222 36.3546Z" fill="#3F3D56"/>
<path d="M57.6248 51.5832C57.4173 51.7818 57.1355 51.894 56.8412 51.8951C56.5469 51.8962 56.2642 51.7861 56.055 51.5891L40.5056 36.9087C40.2969 36.7113 40.1791 36.4432 40.1781 36.1632C40.1771 35.8832 40.2929 35.6143 40.5001 35.4156C40.7074 35.2168 40.989 35.1045 41.2832 35.1033C41.5774 35.1021 41.8601 35.212 42.0692 35.409L57.6186 50.0895C57.8273 50.2869 57.9452 50.5551 57.9463 50.8351C57.9475 51.1152 57.8319 51.3842 57.6248 51.5832Z" fill="#3F3D56"/>
<path d="M41.2921 38.5698C42.3547 38.5698 43.2161 37.7501 43.2161 36.7389C43.2161 35.7278 42.3547 34.9081 41.2921 34.9081C40.2295 34.9081 39.368 35.7278 39.368 36.7389C39.368 37.7501 40.2295 38.5698 41.2921 38.5698Z" fill="#CCCCCC"/>
<path d="M28.0394 4.99171C25.0861 9.41005 20.58 12.3423 15.0228 14.2686C14.913 14.3468 14.788 14.4037 14.6551 14.436C14.5222 14.4684 14.3839 14.4754 14.2481 14.4569C14.1122 14.4383 13.9816 14.3945 13.8636 14.3279C13.7456 14.2613 13.6425 14.1733 13.5603 14.0688C10.5417 10.2335 11.2233 4.75214 15.2072 1.82155C16.1704 1.11426 17.2716 0.596083 18.447 0.297094C19.6223 -0.00189473 20.8484 -0.0757381 22.054 0.0798529C23.2596 0.235444 24.4207 0.617369 25.4699 1.20345C26.5191 1.78954 27.4355 2.56811 28.1659 3.49397L28.2494 3.60005C28.3316 3.70455 28.3914 3.82343 28.4254 3.94992C28.4593 4.07641 28.4668 4.20803 28.4473 4.33726C28.4278 4.46648 28.3818 4.59079 28.3118 4.70308C28.2418 4.81538 28.1493 4.91345 28.0394 4.99171Z" fill="#E6E6E6"/>
<path d="M54.4181 3.49397C55.1485 2.56811 56.0649 1.78954 57.1141 1.20345C58.1633 0.617367 59.3244 0.235444 60.53 0.0798534C61.7356 -0.0757375 62.9617 -0.00189627 64.137 0.297092C65.3124 0.596081 66.4136 1.11426 67.3768 1.82155C71.3607 4.75214 72.0423 10.2335 69.0237 14.0688C68.9415 14.1733 68.8384 14.2613 68.7204 14.3279C68.6024 14.3945 68.4718 14.4383 68.336 14.4569C68.2001 14.4754 68.0618 14.4684 67.9289 14.436C67.796 14.4037 67.671 14.3468 67.5612 14.2685C62.4023 12.3891 58.1717 9.13661 54.5445 4.99171C54.3228 4.83365 54.1761 4.59824 54.1367 4.33725C54.0973 4.07626 54.1685 3.81108 54.3346 3.60005L54.4181 3.49397Z" fill="#E6E6E6"/>
<path d="M53.1237 62.9719C52.9356 63.0725 52.7971 63.2399 52.7385 63.4375C52.6798 63.6351 52.7059 63.8468 52.8109 64.0261L57.5087 72.0146C57.6142 72.1939 57.7901 72.3259 57.9979 72.3817C58.2056 72.4375 58.4281 72.4125 58.6165 72.3122C58.8049 72.2119 58.9437 72.0445 59.0023 71.8468C59.061 71.6491 59.0348 71.4374 58.9294 71.2581L54.2316 63.2696C54.1259 63.0906 53.95 62.9588 53.7423 62.903C53.5347 62.8472 53.3122 62.872 53.1237 62.9719Z" fill="#E6E6E6"/>
<path d="M28.3524 63.2697L23.6546 71.2582C23.5492 71.4374 23.523 71.6492 23.5817 71.8469C23.6404 72.0445 23.7792 72.2119 23.9675 72.3122C24.1559 72.4125 24.3784 72.4375 24.5862 72.3817C24.7939 72.3259 24.9698 72.1939 25.0753 72.0147L29.7731 64.0262C29.8254 63.9374 29.8587 63.8397 29.8713 63.7387C29.8838 63.6376 29.8753 63.5353 29.8463 63.4373C29.8172 63.3394 29.7682 63.2479 29.702 63.1681C29.6358 63.0882 29.5537 63.0215 29.4604 62.9718C29.3671 62.9221 29.2644 62.8904 29.1582 62.8785C29.0521 62.8666 28.9445 62.8747 28.8416 62.9023C28.7387 62.93 28.6425 62.9767 28.5586 63.0397C28.4747 63.1027 28.4046 63.1809 28.3524 63.2697Z" fill="#E6E6E6"/>
<path d="M58.4601 74.0601C59.8497 74.0601 60.9761 72.9882 60.9761 71.6659C60.9761 70.3436 59.8497 69.2717 58.4601 69.2717C57.0706 69.2717 55.9441 70.3436 55.9441 71.6659C55.9441 72.9882 57.0706 74.0601 58.4601 74.0601Z" fill="#E6E6E6"/>
<path d="M60.2361 12.797C61.6257 12.797 62.7521 11.7251 62.7521 10.4029C62.7521 9.08058 61.6257 8.00867 60.2361 8.00867C58.8466 8.00867 57.7201 9.08058 57.7201 10.4029C57.7201 11.7251 58.8466 12.797 60.2361 12.797Z" fill="#E6E6E6"/>
<path d="M41.144 7.16368C42.5335 7.16368 43.66 6.09177 43.66 4.76949C43.66 3.44722 42.5335 2.37531 41.144 2.37531C39.7544 2.37531 38.6279 3.44722 38.6279 4.76949C38.6279 6.09177 39.7544 7.16368 41.144 7.16368Z" fill="#E6E6E6"/>
<path d="M22.9398 12.5154C24.3294 12.5154 25.4559 11.4435 25.4559 10.1212C25.4559 8.7989 24.3294 7.72699 22.9398 7.72699C21.5503 7.72699 20.4238 8.7989 20.4238 10.1212C20.4238 11.4435 21.5503 12.5154 22.9398 12.5154Z" fill="#E6E6E6"/>
<path d="M24.5679 74.0601C25.9575 74.0601 27.0839 72.9882 27.0839 71.6659C27.0839 70.3436 25.9575 69.2717 24.5679 69.2717C23.1783 69.2717 22.0519 70.3436 22.0519 71.6659C22.0519 72.9882 23.1783 74.0601 24.5679 74.0601Z" fill="#E6E6E6"/>
<path d="M56.4866 50.2366C56.5858 50.3844 56.7178 50.5097 56.8734 50.6036C57.029 50.6976 57.2043 50.758 57.387 50.7805C57.5698 50.803 57.7555 50.7871 57.931 50.734C58.1066 50.6808 58.2678 50.5916 58.4033 50.4728L62.3513 52.4858L62.1396 50.2801L58.4229 48.7067C58.198 48.5034 57.9025 48.3856 57.5925 48.3758C57.2824 48.3659 56.9793 48.4647 56.7407 48.6533C56.502 48.8418 56.3443 49.1072 56.2975 49.399C56.2507 49.6908 56.3179 49.9889 56.4866 50.2366Z" fill="#FFB7B7"/>
<path d="M59.3632 51.0064L60.9103 48.9742L68.3636 52.327L77.6384 50.671C78.0969 50.5892 78.5686 50.6044 79.0202 50.7156C79.4718 50.8267 79.8921 51.0311 80.2514 51.3143C80.6106 51.5974 80.8999 51.9523 81.0988 52.3538C81.2977 52.7553 81.4012 53.1935 81.4021 53.6374C81.4028 54.4391 81.0692 55.2083 80.4745 55.7762C79.8799 56.3442 79.0728 56.6645 78.2303 56.6668L67.6014 56.6856L59.3632 51.0064Z" fill="#3F3D56"/>
<path d="M56.9803 86.1061L55.4149 85.3937L57.5652 79.1677L59.8754 80.2192L56.9803 86.1061Z" fill="#FFB7B7"/>
<path d="M67.4745 85.1024C67.3606 85.1702 67.2468 85.237 67.1318 85.3037C66.903 85.4372 66.6719 85.5685 66.4408 85.6976C66.3247 85.7621 66.2074 85.8267 66.0913 85.8902V85.8934L66.0844 85.8945L66.0821 85.8956L65.905 85.9372L65.6509 85.2982L65.5336 85.0039L65.3681 84.5871L65.0645 83.8245L63.4663 79.8091L65.951 79.226L66.0441 79.5881H66.0453L66.0913 79.7675L66.9594 83.1177L67.1364 83.8026L67.1422 83.8234L67.2491 84.2326L67.3411 84.5871L67.4434 84.9832L67.4745 85.1024Z" fill="#FFB7B7"/>
<path d="M82.2966 71.0014C82.1391 71.2421 81.9781 71.4817 81.816 71.7191C81.5148 72.1612 81.2055 72.5966 80.8881 73.0255C80.8881 73.0266 80.887 73.0266 80.8858 73.0277C80.7007 73.1909 80.4962 73.333 80.2765 73.4511C80.2673 73.4577 80.2569 73.4621 80.2477 73.4675C80.0859 73.5526 79.9137 73.6184 79.7349 73.6634C79.6705 73.6787 79.605 73.694 79.5406 73.7093C79.3083 73.7618 79.0784 73.8067 78.8496 73.8461C78.4426 73.915 78.0401 73.9642 77.64 73.9949C77.6078 73.9982 77.5756 74.0004 77.5434 74.0025C75.8981 74.1174 74.2964 73.9325 72.6247 73.6295C71.7991 73.4807 70.9563 73.3023 70.0836 73.1174C69.7985 73.0561 69.5122 72.996 69.2225 72.9358C69.2006 72.9314 69.1776 72.9259 69.1546 72.9216C68.7407 72.8351 68.3199 72.7498 67.8887 72.6655C67.346 72.5594 66.7861 72.4566 66.2043 72.3592L66.2457 73.1393C66.2801 73.7394 66.4112 74.3309 66.6343 74.8932C66.8827 75.5846 67.0793 76.1317 66.6642 77.2706L66.4641 77.8221C66.5678 78.0959 66.6034 78.3889 66.5681 78.678C66.5328 78.9671 66.4276 79.2445 66.2606 79.4884L66.2204 79.5464L67.8887 83.5628L67.9968 83.8232H67.1425L66.0916 83.8243H64.3106L61.7408 78.9184L61.6178 78.6842V78.6722L61.8834 69.2443C61.8868 69.1611 61.8938 69.0769 61.9052 68.9937C61.9521 68.6157 62.0776 68.2504 62.2744 67.919C62.4712 67.5876 62.7354 67.2969 63.0516 67.0637C63.3545 66.8384 63.7016 66.6727 64.0725 66.5761C64.4433 66.4796 64.8307 66.4542 65.212 66.5014L66.0916 66.6097L67.8887 66.8307L69.1546 66.9871L69.1799 66.9904L72.9133 67.4499L73.1812 66.4105L73.2306 66.393L74.8024 65.8449L80.2385 63.9488L80.2523 63.9444L80.6099 63.8197L80.6524 63.8853C80.6651 63.905 80.6777 63.9247 80.6892 63.9444C81.0427 64.5474 81.3304 65.183 81.5481 65.8416C81.9142 66.9174 82.2155 68.0122 82.4507 69.1207C82.461 69.1688 82.4702 69.2126 82.4783 69.252L82.4817 69.264C82.4852 69.2826 82.4875 69.2946 82.4886 69.2979C82.614 69.7946 82.5266 70.4007 82.2966 71.0014Z" fill="#2F2E41"/>
<path d="M82.5261 67.5269C82.5088 67.4569 82.487 67.3857 82.464 67.3168C82.2814 66.7948 82.0688 66.2827 81.827 65.7829C81.5556 65.2139 81.2303 64.6045 80.8428 63.9448C80.6554 63.6253 80.4538 63.2931 80.238 62.9481C80.1299 62.7752 80.0176 62.599 79.9011 62.4196C79.8966 62.4113 79.8916 62.4033 79.8862 62.3955L79.8528 62.343L74.4741 63.0279L72.4712 63.2829L72.3516 64.2325L72.3229 64.4678C72.3218 64.4678 72.3218 64.4678 72.3229 64.4689L72.2424 65.11V65.1111L72.1355 65.9579L72.1263 65.9569L69.1541 65.5903L66.0911 65.2129L64.4457 65.0105C64.0644 64.9632 63.6771 64.9885 63.3062 65.0851C62.9352 65.1816 62.5882 65.3474 62.2853 65.5728C61.9692 65.806 61.705 66.0968 61.5082 66.4282C61.3114 66.7595 61.1859 67.1248 61.139 67.5028C61.1286 67.5794 61.1217 67.6582 61.1183 67.7359L59.5661 71.2359C58.6372 73.3291 58.0457 75.5437 57.8115 77.8049L56.6732 81.2678L56.8353 81.282L59.2476 81.4954L59.8845 81.5523L61.2873 79.6037C61.4471 79.3816 61.5989 79.1529 61.7403 78.9187C61.9731 78.5363 62.1801 78.1402 62.36 77.7327L65.3943 70.8617C65.6289 70.9001 65.8611 70.9365 66.0911 70.9712C67.1546 71.1353 68.1756 71.2691 69.1541 71.3727C72.3355 71.7108 75.0904 71.737 77.5429 71.4504C78.2316 71.3705 78.8974 71.2655 79.5401 71.1353C79.7758 71.0882 80.0084 71.0375 80.238 70.9832C80.292 70.9712 80.3449 70.9591 80.3978 70.946C80.873 70.8294 81.3099 70.6012 81.6684 70.2824C82.027 69.9636 82.2958 69.5643 82.4502 69.121C82.6345 68.6074 82.6609 68.0543 82.5261 67.5269Z" fill="#2F2E41"/>
<path d="M57.4803 85.0896L55.7866 84.3171L55.5211 84.1957L55.0968 85.1869L52.1349 85.8073C51.9885 85.8378 51.8561 85.9122 51.7572 86.0194C51.6583 86.1266 51.5981 86.2611 51.5852 86.4033C51.5724 86.5454 51.6076 86.6877 51.6859 86.8094C51.7641 86.9311 51.8811 87.0259 52.02 87.0797L54.914 88.2034L55.8326 87.4167L55.6073 88.4726L56.6973 88.896L57.8919 85.2778L57.4803 85.0896Z" fill="#2F2E41"/>
<path d="M67.8887 83.5629L67.9969 83.8233H67.8887V83.5629Z" fill="#2F2E41"/>
<path d="M67.2988 83.8788L65.5242 84.4639L65.2457 84.5554L65.6772 85.5439L64.0313 87.9678C63.9498 88.0875 63.9107 88.229 63.9197 88.3714C63.9287 88.5138 63.9854 88.6497 64.0813 88.7593C64.1773 88.8689 64.3076 88.9464 64.4532 88.9806C64.5988 89.0147 64.752 89.0036 64.8905 88.9489L67.7777 87.8097L67.8488 86.6356L68.4694 87.5367L69.557 87.1078L67.7305 83.7369L67.2988 83.8788Z" fill="#2F2E41"/>
<path d="M82.0834 69.112C81.9781 69.1118 81.8743 69.0873 81.7811 69.0406L72.4164 64.3843L72.3082 63.9628L72.1042 62.6288L72.1071 62.6163L72.9977 58.7091C72.9813 58.6756 72.9472 58.6205 72.9087 58.5584C72.5111 57.9173 71.3011 55.9663 73.6104 53.2798L77.665 48.7816L81.1449 48.6392L81.1845 48.6867C82.115 49.7981 82.7425 51.111 83.0113 52.5087C83.2801 53.9065 83.1818 55.3457 82.7252 56.6986L82.3629 62.9259L82.7515 64.1835C82.9787 64.9225 82.9412 65.7125 82.6447 66.429L82.7338 68.4653C82.7373 68.5488 82.7231 68.6321 82.692 68.7102C82.6609 68.7883 82.6136 68.8597 82.5529 68.92C82.4922 68.9804 82.4193 69.0285 82.3387 69.0615C82.258 69.0945 82.1712 69.1117 82.0834 69.112Z" fill="#3F3D56"/>
<path d="M73.9603 74.2477C74.119 74.1586 74.2551 74.0374 74.3592 73.8927C74.4633 73.748 74.5328 73.5834 74.5628 73.4104C74.5928 73.2374 74.5826 73.0602 74.5329 72.8914C74.4832 72.7226 74.3951 72.5662 74.275 72.4332L76.5265 68.7487L74.2026 68.8733L72.4209 72.3531C72.1995 72.5599 72.0656 72.8368 72.0444 73.1314C72.0233 73.4259 72.1165 73.7175 72.3062 73.9511C72.496 74.1846 72.7692 74.3438 73.074 74.3985C73.3789 74.4532 73.6942 74.3995 73.9603 74.2477Z" fill="#FFB7B7"/>
<path d="M74.8688 71.5389L72.7883 69.9969L76.5688 63.0254L75.1523 54.1474C75.0823 53.7086 75.1146 53.2605 75.2471 52.8349C75.3795 52.4093 75.6088 52.0167 75.9187 51.6849C76.2285 51.3531 76.6114 51.0903 77.0399 50.9151C77.4685 50.7399 77.9324 50.6567 78.3986 50.6713C79.2406 50.6986 80.0369 51.0426 80.6127 51.6278C81.1885 52.2131 81.4967 52.9918 81.4699 53.7931L81.1199 63.9019L74.8688 71.5389Z" fill="#3F3D56"/>
<path d="M75.4329 46.9126V43.6358C75.4321 42.4713 75.9175 41.3542 76.7822 40.5302C77.647 39.7063 78.8204 39.2429 80.0441 39.2422C81.2679 39.2414 82.4419 39.7033 83.3078 40.5262C84.1737 41.3491 84.6606 42.4657 84.6613 43.6302V43.6358C85.4746 45.2485 84.9658 46.0151 84.6613 46.9126C84.6611 47.0689 84.5957 47.2187 84.4796 47.3292C84.3634 47.4397 84.206 47.5019 84.0418 47.5021H76.0527C75.8884 47.502 75.7309 47.4398 75.6147 47.3293C75.4985 47.2188 75.4331 47.0689 75.4329 46.9126Z" fill="#2F2E41"/>
<path d="M78.5342 47.2892C80.4418 47.2892 81.9882 45.8177 81.9882 44.0025C81.9882 42.1873 80.4418 40.7158 78.5342 40.7158C76.6267 40.7158 75.0803 42.1873 75.0803 44.0025C75.0803 45.8177 76.6267 47.2892 78.5342 47.2892Z" fill="#FFB7B7"/>
<path d="M82.1488 44.8642C82.1175 44.8594 82.0862 44.8532 82.0549 44.8485C81.5162 44.7575 80.9774 44.6682 80.4403 44.5757L80.3909 43.4171L79.7401 44.4549C78.2556 44.9237 76.8667 44.6588 75.5602 44.074C75.1292 43.8793 74.711 43.6599 74.308 43.4171C74.4177 42.7763 74.6767 42.167 75.0658 41.6336C75.4549 41.1003 75.9644 40.6566 76.5569 40.3348C76.6064 40.3081 76.6541 40.2846 76.7036 40.2611L76.7042 40.261L76.7047 40.2606L76.7051 40.2601L76.7052 40.2595C76.7892 40.2219 76.8749 40.1858 76.9606 40.1529C77.6313 39.9035 78.3627 39.8403 79.0697 39.9707C79.7766 40.1012 80.4302 40.4199 80.9543 40.8898C82.0088 41.8477 82.4833 43.4296 82.1488 44.8642Z" fill="#2F2E41"/>
</g>
<defs>
<clipPath id="clip0_6_4490">
<rect width="100" height="89" fill="white"/>
</clipPath>
</defs>
</svg>
