<svg width="285" height="270" viewBox="0 0 285 270" fill="none" xmlns="http://www.w3.org/2000/svg">
<ellipse cx="142.5" cy="134.885" rx="142.5" ry="134.885" fill="#2D2D43"/>
<path d="M40.9804 42.8433L40.6425 43.2119L40.8408 43.3936L41.1017 43.3284L40.9804 42.8433ZM16.4995 20.4025L16.6768 24.4811L20.7554 24.3038L20.5781 20.2252L16.4995 20.4025ZM59.6078 38.1865L60.076 38.362L60.4104 37.4705L59.4866 37.7014L59.6078 38.1865ZM54.0196 53.0884L53.5514 52.9129L53.4648 53.1441L53.5956 53.3534L54.0196 53.0884ZM63.3333 67.9904L63.7675 68.2385L63.9158 67.9789L63.7573 67.7254L63.3333 67.9904ZM55.8824 81.0296L55.4482 80.7815L55.2453 81.1366L55.5531 81.4059L55.8824 81.0296ZM41.3183 42.4748L18.9653 21.9846L18.2896 22.7217L40.6425 43.2119L41.3183 42.4748ZM59.4866 37.7014L40.8591 42.3583L41.1017 43.3284L59.7291 38.6715L59.4866 37.7014ZM54.4878 53.264L60.076 38.362L59.1397 38.0109L53.5514 52.9129L54.4878 53.264ZM63.7573 67.7254L54.4436 52.8234L53.5956 53.3534L62.9093 68.2554L63.7573 67.7254ZM63.6626 87.1729L56.2116 80.6533L55.5531 81.4059L63.0041 87.9255L63.6626 87.1729ZM56.3165 81.2777L63.7675 68.2385L62.8992 67.7423L55.4482 80.7815L56.3165 81.2777Z" fill="#8682A4"/>
<path d="M116.887 206.299L116.549 206.668L116.748 206.849L117.008 206.784L116.887 206.299ZM92.4063 183.858L92.5836 187.937L96.6622 187.76L96.4849 183.681L92.4063 183.858ZM135.515 201.642L135.983 201.818L136.317 200.926L135.393 201.157L135.515 201.642ZM129.926 216.544L129.458 216.369L129.372 216.6L129.502 216.809L129.926 216.544ZM139.24 231.446L139.674 231.694L139.823 231.435L139.664 231.181L139.24 231.446ZM131.789 244.485L131.355 244.237L131.152 244.592L131.46 244.862L131.789 244.485ZM117.225 205.93L94.8721 185.44L94.1964 186.177L116.549 206.668L117.225 205.93ZM135.393 201.157L116.766 205.814L117.008 206.784L135.636 202.127L135.393 201.157ZM130.395 216.72L135.983 201.818L135.046 201.467L129.458 216.369L130.395 216.72ZM139.664 231.181L130.35 216.279L129.502 216.809L138.816 231.711L139.664 231.181ZM139.569 250.629L132.118 244.109L131.46 244.862L138.911 251.381L139.569 250.629ZM132.223 244.733L139.674 231.694L138.806 231.198L131.355 244.237L132.223 244.733Z" fill="#8682A4"/>
</svg>
