<svg width="175" height="86" viewBox="0 0 175 86" fill="none" xmlns="http://www.w3.org/2000/svg">
<rect width="175" height="85.6115" rx="3" fill="#FEFEFE"/>
<rect x="52.8777" y="16.3669" width="44.0647" height="10.0719" rx="3" fill="#D9DAE3"/>
<rect x="52.8777" y="74.2806" width="23.9209" height="5.03597" rx="2.51799" transform="rotate(-90 52.8777 74.2806)" fill="#D9DAE3"/>
<rect x="66.7266" y="74.2806" width="28.9568" height="5.03597" rx="2.51799" transform="rotate(-90 66.7266 74.2806)" fill="#D9DAE3"/>
<rect x="80.5755" y="74.2806" width="32.7338" height="5.03597" rx="2.51799" transform="rotate(-90 80.5755 74.2806)" fill="#D9DAE3"/>
<rect x="94.4245" y="74.2806" width="26.4388" height="5.03597" rx="2.51799" transform="rotate(-90 94.4245 74.2806)" fill="#D9DAE3"/>
<rect x="108.273" y="74.2806" width="17.6259" height="5.03597" rx="2.51799" transform="rotate(-90 108.273 74.2806)" fill="#D9DAE3"/>
<rect x="122.122" y="74.2806" width="21.4029" height="5.03597" rx="2.51799" transform="rotate(-90 122.122 74.2806)" fill="#D9DAE3"/>
<rect x="135.971" y="74.2806" width="17.6259" height="5.03597" rx="2.51799" transform="rotate(-90 135.971 74.2806)" fill="#D9DAE3"/>
<circle cx="24.5504" cy="23.2914" r="14.4784" fill="#639CD9"/>
</svg>
